<?xml version="1.0" standalone="no"?>
<!DOCTYPE svg PUBLIC "-//W3C//DTD SVG 20010904//EN"
 "http://www.w3.org/TR/2001/REC-SVG-20010904/DTD/svg10.dtd">
<svg version="1.0" xmlns="http://www.w3.org/2000/svg"
 width="512.000000pt" height="512.000000pt" viewBox="0 0 512.000000 512.000000"
 preserveAspectRatio="xMidYMid meet">
<metadata>
Created by potrace 1.14, written by Peter Selinger 2001-2017
</metadata>
<g transform="translate(0.000000,512.000000) scale(0.100000,-0.100000)"
fill="#000000" stroke="none">
<path d="M0 2560 l0 -2560 2560 0 2560 0 0 2560 0 2560 -2560 0 -2560 0 0
-2560z m543 2463 c-8 -2 -13 -22 -13 -44 0 -21 -4 -39 -10 -39 -5 0 -10 -16
-10 -35 0 -19 -4 -35 -10 -35 -5 0 -10 -9 -10 -20 0 -21 8 -25 25 -12 22 16
35 55 41 122 6 56 10 70 24 70 12 0 20 -16 30 -66 16 -76 37 -95 76 -69 13 8
24 19 24 23 0 4 12 21 26 37 15 17 33 40 41 53 13 18 24 22 69 22 l54 0 0 -49
c0 -43 3 -50 24 -55 31 -8 83 3 97 20 6 8 18 14 25 14 8 0 14 4 14 9 0 17 103
61 143 61 l38 0 -29 -57 c-41 -79 -55 -120 -47 -132 3 -6 27 -11 53 -10 41 0
44 2 23 10 -14 5 -31 7 -38 5 -25 -10 -25 23 -1 53 12 17 28 30 33 30 6 1 19
16 30 34 39 66 41 67 227 67 l168 0 0 -280 c0 -217 -3 -280 -12 -280 -8 0 -13
-14 -13 -39 0 -26 4 -37 12 -34 9 4 12 -104 13 -466 l0 -471 -193 0 -193 0
-13 68 c-7 37 -24 100 -37 141 -13 41 -21 77 -19 81 8 13 85 21 105 10 15 -8
21 -6 28 6 7 12 15 15 28 10 28 -12 114 -15 114 -5 0 5 -5 9 -11 9 -18 0 -9
179 11 222 15 31 16 39 4 49 -7 6 -17 9 -21 6 -4 -3 -46 -8 -93 -12 -47 -4
-93 -9 -102 -10 -20 -4 -35 14 -21 24 36 25 73 145 48 155 -18 7 -25 -3 -25
-37 0 -31 -29 -101 -38 -92 -5 5 -52 -58 -52 -71 0 -15 -34 -44 -52 -44 -10 0
-18 -4 -18 -9 0 -5 -13 -14 -30 -21 -16 -7 -43 -26 -59 -42 -26 -27 -34 -29
-107 -30 -84 -1 -163 18 -221 52 -19 11 -42 20 -52 20 -10 0 -31 11 -47 25
-16 14 -32 25 -35 25 -4 0 -14 16 -23 35 -13 26 -23 35 -42 35 -19 0 -26 6
-31 30 -7 35 -36 38 -41 5 -2 -18 -10 -20 -67 -18 -37 2 -65 -2 -65 -7 0 -10
17 -12 114 -14 34 -1 52 -6 59 -18 6 -9 9 -19 6 -22 -2 -3 -46 -6 -97 -7 -83
-1 -92 -4 -92 -20 0 -11 4 -19 10 -19 5 0 7 -7 4 -15 -4 -9 0 -15 9 -15 18 0
47 -42 47 -69 0 -10 7 -21 15 -25 8 -3 15 -16 15 -28 0 -37 25 -97 46 -113 20
-15 86 -18 139 -6 37 8 89 -2 108 -21 18 -18 49 -89 66 -150 8 -27 18 -48 22
-48 5 0 9 -4 9 -10 0 -6 -120 -10 -340 -10 l-340 0 0 785 0 785 233 -1 c127 0
226 -3 220 -6z m200 -3 c-13 -5 -23 -13 -23 -17 0 -13 -58 -73 -69 -73 -6 0
-11 22 -11 50 l0 50 63 -1 c47 0 57 -2 40 -9z m362 3 c-11 -3 -24 -9 -30 -13
-5 -4 -27 -13 -47 -19 -21 -7 -38 -17 -38 -22 0 -6 -10 -9 -22 -7 -13 2 -22 6
-20 11 1 4 2 18 2 32 0 25 1 25 88 24 48 -1 78 -4 67 -6z m1355 2 c0 -2 -11
-15 -25 -29 -14 -14 -25 -30 -25 -36 0 -7 -15 -27 -34 -45 -40 -39 -71 -83
-63 -91 12 -12 43 8 67 43 13 21 35 49 47 62 13 13 23 30 23 37 0 8 5 14 10
14 6 0 10 5 10 11 0 18 28 39 52 39 24 0 24 -1 17 -62 -7 -57 -6 -65 12 -80
22 -18 39 -16 39 5 0 7 12 18 28 24 15 7 43 28 62 46 19 19 47 37 63 40 15 4
27 12 27 17 0 6 12 10 26 10 17 0 24 -4 20 -12 -20 -50 -47 -151 -44 -170 2
-19 9 -23 36 -22 18 1 40 5 50 10 9 4 28 9 42 11 14 2 38 8 54 13 16 6 41 10
55 10 15 0 32 5 37 10 6 6 18 8 28 4 15 -6 15 -8 -4 -24 -11 -9 -20 -22 -20
-27 0 -5 -22 -30 -50 -55 -27 -25 -50 -50 -50 -55 0 -18 34 -40 70 -47 19 -4
53 -10 74 -14 50 -9 58 -29 14 -35 -18 -3 5 -3 52 -1 76 4 113 15 99 29 -3 3
-26 7 -50 9 -24 2 -64 11 -89 19 -25 9 -56 18 -70 20 -67 13 -89 30 -51 42 10
3 35 21 56 40 20 19 41 35 46 35 6 0 25 11 43 25 18 14 38 25 44 25 7 0 12 2
12 4 0 2 3 11 6 19 8 22 -55 41 -90 27 -15 -5 -44 -10 -64 -10 -20 -1 -64 -8
-97 -16 -33 -8 -76 -19 -94 -24 -62 -16 -65 1 -18 95 l32 65 223 0 222 0 0
-785 0 -785 -274 0 -273 0 -41 83 c-23 45 -46 105 -53 132 -6 28 -20 57 -30
67 -26 22 -24 28 11 28 17 0 30 5 30 10 0 6 9 10 20 10 11 0 20 5 20 10 0 6
-24 10 -52 10 -51 -1 -88 -16 -88 -37 0 -6 -11 -8 -25 -5 -14 2 -33 -2 -42 -9
-10 -9 -43 -14 -95 -14 -73 0 -81 2 -99 25 -42 55 -59 85 -59 104 0 15 -21 26
-52 26 -18 0 -16 -5 16 -34 20 -19 36 -39 36 -45 0 -6 5 -11 10 -11 6 0 10
-13 10 -29 0 -21 -6 -32 -20 -36 -13 -4 -20 -15 -20 -31 0 -13 -4 -24 -10 -24
-5 0 -10 -8 -10 -18 0 -11 -9 -29 -20 -42 -11 -13 -20 -31 -20 -40 0 -10 -11
-25 -24 -36 -16 -11 -27 -32 -31 -56 l-7 -38 -189 0 -189 0 0 785 0 785 355 0
c195 0 355 -2 355 -5z m250 2 c0 -2 -20 -14 -45 -27 -24 -12 -54 -32 -65 -42
-28 -26 -34 -18 -25 31 l7 41 64 0 c35 0 64 -2 64 -3z m1350 -6 c0 -6 -4 -12
-9 -15 -5 -3 -12 -18 -15 -33 -4 -16 -15 -50 -25 -78 -30 -80 -45 -135 -39
-141 15 -14 56 44 62 89 4 26 11 47 17 47 5 0 9 10 10 23 1 26 30 79 47 85 8
2 12 -11 12 -45 0 -76 8 -93 41 -93 19 0 29 5 29 15 0 8 3 15 8 15 4 0 18 18
32 40 13 22 30 40 37 40 8 0 22 13 31 30 13 24 24 30 50 30 l32 0 0 -73 c0
-43 5 -78 12 -85 14 -14 54 -16 62 -3 3 4 20 11 38 15 42 8 88 29 88 38 0 5 9
8 20 8 11 0 20 5 20 10 0 6 7 10 15 10 8 0 15 -2 15 -5 0 -14 -32 -65 -40 -65
-6 0 -10 -5 -10 -11 0 -6 -9 -24 -21 -40 -20 -29 -23 -63 -4 -65 6 0 17 -3 25
-7 8 -3 35 -8 60 -11 25 -3 54 -7 65 -9 11 -3 35 -5 53 -6 41 -1 41 -12 -2
-35 -19 -10 -36 -27 -39 -37 -6 -24 -1 -24 51 1 22 11 46 20 52 20 5 0 10 4
10 9 0 5 20 12 45 15 36 6 45 11 45 27 0 20 -11 23 -71 20 -20 -2 -40 2 -44 8
-4 7 -48 11 -116 11 -90 0 -109 3 -109 15 0 8 5 15 10 15 6 0 10 7 10 15 0 8
5 15 10 15 6 0 10 6 10 14 0 7 12 27 28 44 101 112 109 126 75 135 -10 3 52 5
137 6 l155 1 -3 -785 -2 -785 -240 0 c-197 0 -240 2 -240 14 0 7 7 19 15 26
13 11 13 14 0 27 -8 8 -15 25 -15 37 0 13 -9 31 -19 40 -11 10 -31 43 -46 74
-15 32 -32 68 -38 82 -7 14 -25 39 -41 57 -28 31 -29 32 -58 17 -45 -23 -114
-20 -194 9 -40 14 -74 24 -76 21 -3 -2 -11 7 -18 21 -10 19 -21 25 -46 25 -18
0 -36 -4 -39 -10 -3 -5 0 -10 9 -10 26 0 116 -45 116 -57 0 -7 -4 -13 -10 -13
-5 0 -10 -8 -10 -19 0 -24 -27 -88 -40 -96 -5 -3 -10 -22 -10 -42 0 -36 -14
-91 -31 -125 -12 -24 -11 -58 1 -58 6 0 10 -4 10 -10 0 -6 -107 -10 -300 -10
l-300 0 0 785 0 785 325 0 c196 0 325 -4 325 -9z m160 -51 c-33 -33 -62 -60
-64 -60 -2 0 -8 19 -12 43 -14 82 -19 77 63 77 l73 0 -60 -60z m488 53 c-10
-2 -18 -9 -18 -14 0 -5 -9 -9 -20 -9 -11 0 -20 -4 -20 -9 0 -5 -18 -12 -40
-16 -22 -4 -40 -11 -40 -16 0 -5 -9 -9 -20 -9 -11 0 -20 -4 -20 -10 0 -5 -9
-10 -20 -10 -11 0 -20 -4 -20 -10 0 -5 -7 -10 -15 -10 -8 0 -15 -4 -15 -10 0
-5 -14 -10 -31 -10 -26 0 -30 3 -24 18 4 9 9 41 12 70 l6 52 151 -1 c83 -1
143 -3 134 -6z m-198 -1553 c0 -5 -9 -10 -21 -10 -11 0 -17 5 -14 10 3 6 13
10 21 10 8 0 14 -4 14 -10z m-3717 -120 c-3 -11 -9 -20 -14 -20 -5 0 -9 -7 -9
-15 0 -8 -4 -15 -9 -15 -5 0 -11 -8 -14 -17 -9 -29 -51 -97 -67 -110 -12 -9
-12 -14 -3 -24 19 -19 40 -4 62 43 11 24 31 55 44 69 14 14 27 34 28 44 2 10
10 20 17 23 8 2 12 -12 12 -51 0 -32 5 -59 13 -65 18 -15 62 8 126 68 30 28
59 50 66 50 7 0 24 9 38 20 14 11 37 20 51 20 l25 0 -25 -67 c-48 -127 -50
-144 -25 -164 19 -15 33 -17 84 -12 34 3 70 10 79 14 9 5 30 9 47 9 16 0 33 5
36 10 7 11 55 14 55 4 0 -4 -9 -22 -21 -40 -25 -41 -11 -44 33 -6 18 15 45 34
61 41 31 16 33 23 12 41 -14 12 -61 5 -149 -21 -16 -5 -47 -9 -70 -9 -23 0
-61 -5 -85 -11 -24 -5 -48 -6 -52 -2 -8 8 10 76 24 89 4 4 7 17 7 28 0 12 11
38 25 59 l26 37 219 0 220 0 0 -785 0 -785 -260 0 c-167 0 -260 4 -260 10 0 6
-9 19 -21 31 -29 29 -131 230 -125 246 3 7 15 13 26 13 11 0 20 5 20 10 0 6 9
10 19 10 11 0 21 3 23 8 5 11 107 82 118 82 14 0 90 80 90 95 0 20 26 25 47
10 10 -8 36 -15 57 -15 32 0 45 6 68 32 16 18 31 44 34 58 2 14 8 36 12 50 14
48 3 90 -26 102 -15 5 -34 14 -43 18 -10 5 -21 4 -28 -3 -21 -21 -35 7 -19 40
10 21 21 28 41 28 36 -1 34 12 -3 20 -37 8 -50 0 -50 -30 0 -13 -4 -25 -9 -27
-5 -1 -11 -14 -13 -27 -3 -24 -1 -25 52 -22 52 2 56 1 68 -28 13 -29 12 -74
-1 -87 -4 -4 -7 -17 -7 -29 0 -44 -120 -76 -150 -40 -19 23 -28 18 -51 -27
-20 -40 -51 -78 -64 -78 -3 0 -18 -11 -34 -25 -15 -14 -43 -34 -62 -44 -19
-10 -64 -34 -100 -54 -52 -29 -78 -37 -118 -37 -62 0 -132 23 -188 61 -23 16
-56 32 -73 35 -16 4 -30 10 -30 15 0 5 -5 9 -10 9 -6 0 -33 15 -60 33 -35 23
-51 41 -56 62 -4 16 -15 37 -25 46 -11 9 -19 24 -19 33 0 9 -4 16 -10 16 -5 0
-10 7 -10 15 0 8 -4 15 -10 15 -17 0 -11 -35 10 -58 11 -12 20 -28 20 -37 0
-8 5 -15 10 -15 6 0 10 -6 10 -12 0 -15 54 -78 65 -78 4 0 15 -8 24 -19 9 -10
31 -26 50 -36 19 -9 43 -26 54 -36 12 -10 28 -19 37 -19 9 0 21 -5 28 -12 8
-8 7 -15 -8 -28 -23 -20 -50 -80 -50 -110 0 -11 -4 -20 -8 -20 -5 0 -15 -12
-23 -27 -8 -16 -21 -34 -30 -40 -9 -7 -20 -28 -23 -48 l-7 -35 -234 0 -235 0
0 785 0 785 354 0 c349 0 354 0 349 -20z m195 -30 c-42 -27 -79 -54 -83 -60
-22 -36 -35 33 -15 84 9 25 13 26 92 26 l83 0 -77 -50z m1312 42 c0 -5 -8 -17
-18 -28 -11 -11 -32 -53 -49 -94 -23 -58 -35 -76 -51 -78 -16 -3 -22 2 -22 17
0 11 -4 23 -10 26 -5 3 -10 21 -10 38 0 44 -11 59 -31 44 -17 -13 -37 -130
-38 -227 -1 -30 -4 -67 -7 -82 -3 -16 -1 -28 4 -28 12 0 22 35 22 79 0 19 5
62 11 95 21 117 21 116 34 53 12 -57 37 -97 60 -97 15 0 25 22 32 70 3 19 9
40 13 45 4 6 26 47 50 93 23 45 48 82 55 82 8 0 16 -24 23 -67 15 -100 27
-126 54 -117 18 5 141 96 168 124 6 6 79 40 85 40 9 0 5 -30 -5 -50 -5 -11
-14 -29 -20 -40 -13 -26 -13 -30 6 -30 9 0 12 -5 8 -11 -5 -8 2 -10 22 -6 63
12 118 29 157 47 22 11 47 20 54 20 15 0 17 -16 3 -25 -12 -8 -13 -25 -2 -25
5 0 18 8 30 18 55 46 63 52 73 52 6 0 9 6 6 13 -7 21 -167 -2 -167 -25 0 -4
-7 -8 -15 -8 -8 0 -39 -11 -69 -25 -64 -29 -76 -31 -76 -9 0 21 30 84 40 84 4
0 10 9 13 20 5 19 14 20 296 20 l291 0 0 -785 0 -785 -125 0 c-77 0 -125 4
-125 10 0 6 -7 10 -16 10 -8 0 -12 -4 -9 -10 10 -16 -55 -12 -71 4 -8 8 -17
29 -20 45 -6 30 -29 43 -32 19 -7 -56 -16 -78 -32 -78 -23 0 -30 20 -30 86 0
57 -11 69 -31 32 -30 -56 -59 -63 -59 -14 0 19 -6 37 -12 39 -23 9 47 67 81
67 16 0 32 -4 35 -9 3 -5 26 -14 51 -20 62 -15 105 8 133 72 11 25 16 27 68
27 l56 0 -7 -29 c-5 -26 -4 -29 13 -24 11 2 24 15 30 28 10 21 8 24 -16 32
-15 5 -48 8 -74 7 -44 -3 -46 -2 -43 22 1 14 7 30 14 37 23 23 12 37 -28 37
-22 0 -43 5 -47 11 -4 8 -9 8 -17 0 -15 -15 -54 -14 -60 2 -3 9 -7 9 -20 -1
-17 -15 -72 -8 -83 9 -3 6 1 18 10 28 9 10 16 23 16 30 0 7 5 9 10 6 6 -3 10
0 10 7 0 8 9 20 20 28 11 8 20 18 20 23 0 5 7 15 15 23 8 9 15 20 15 25 0 6
-11 0 -24 -13 -13 -13 -33 -30 -45 -38 -11 -8 -21 -19 -21 -25 0 -21 -127
-135 -151 -135 -13 0 -37 -7 -53 -15 -22 -12 -37 -13 -60 -6 -17 5 -67 12
-111 15 -43 3 -84 11 -89 16 -6 6 -22 10 -37 10 -15 0 -29 4 -31 8 -1 4 -30
21 -62 36 -33 16 -73 42 -89 58 -36 33 -44 35 -52 8 -3 -11 -12 -20 -20 -20
-7 0 -28 -7 -46 -15 -34 -16 -34 -16 34 -12 49 4 72 1 82 -9 7 -8 20 -14 27
-14 27 0 145 -65 141 -77 -5 -15 -49 -17 -58 -3 -11 17 -35 11 -35 -9 0 -14
-9 -20 -32 -24 -54 -8 -142 -43 -124 -50 25 -10 8 -34 -35 -51 -22 -9 -42 -23
-45 -31 -8 -19 27 -64 49 -65 10 0 16 -4 13 -9 -8 -12 47 -22 58 -10 6 6 3 9
-10 9 -10 0 -34 9 -51 20 -38 23 -45 60 -13 60 11 0 20 5 20 10 0 12 67 13 74
1 10 -16 86 -51 110 -51 29 0 41 15 51 57 10 47 38 63 112 63 58 0 63 -2 69
-25 3 -14 4 -32 0 -40 -6 -17 -36 -21 -36 -5 0 12 -47 13 -54 1 -3 -5 14 -14
39 -20 34 -9 46 -17 51 -35 11 -46 2 -61 -36 -58 -19 2 -43 11 -53 19 -9 9
-20 13 -24 9 -4 -4 -2 -10 4 -14 6 -4 12 -28 14 -54 l4 -48 -36 0 c-27 0 -41
6 -52 23 l-16 22 0 -22 -1 -23 -280 0 -280 0 0 785 0 785 275 0 c151 0 275 -4
275 -8z m325 -2 c-3 -5 -13 -10 -21 -10 -8 0 -14 -4 -14 -9 0 -5 -13 -14 -29
-20 -15 -7 -48 -30 -72 -52 -66 -59 -79 -54 -79 31 l0 70 111 0 c71 0 108 -4
104 -10z m1475 1 c0 -5 -6 -16 -13 -23 -24 -24 -74 -103 -82 -128 -4 -14 -15
-36 -24 -50 -9 -14 -23 -38 -31 -53 l-14 -29 -14 34 c-8 18 -18 41 -23 50 -5
10 -9 29 -9 42 0 14 -4 28 -10 31 -5 3 -10 17 -10 31 0 19 -5 25 -17 22 -20
-3 -32 -58 -14 -58 6 0 11 -7 11 -16 0 -8 5 -12 10 -9 6 4 10 -6 10 -22 0 -15
12 -52 27 -81 23 -45 32 -52 53 -50 19 2 29 14 44 53 32 83 46 113 59 127 7 7
21 31 32 53 20 40 39 65 49 65 3 0 6 -36 6 -81 0 -91 20 -149 51 -149 10 0 33
15 51 34 89 94 168 165 190 172 10 3 18 10 18 15 0 5 7 9 16 9 12 0 14 -3 6
-13 -6 -7 -15 -41 -20 -77 -6 -36 -12 -74 -15 -85 -2 -11 -2 -14 0 -7 3 7 9
10 14 7 5 -4 9 3 9 15 0 11 5 30 12 43 23 46 28 57 28 69 0 7 11 25 24 41 l23
27 242 0 241 0 0 -787 0 -788 -232 3 c-128 1 -236 6 -240 10 -9 9 -28 92 -21
92 3 0 13 -8 22 -17 17 -19 51 -29 51 -16 0 5 -13 17 -30 26 -28 17 -42 57
-20 57 6 0 10 37 10 90 0 53 -4 90 -10 90 -5 0 -10 15 -10 34 0 19 -6 41 -12
48 -26 28 -38 59 -38 97 0 22 -4 43 -10 46 -14 9 -13 98 2 113 6 6 9 15 5 18
-3 4 -14 -2 -24 -12 -15 -14 -18 -33 -16 -99 1 -68 6 -89 28 -130 15 -28 32
-55 36 -61 19 -23 -35 -145 -79 -181 -9 -8 -44 -13 -84 -13 -38 0 -98 -7 -133
-16 -83 -21 -121 -13 -173 34 -39 36 -42 42 -42 90 0 29 5 52 10 52 6 0 10 -7
10 -15 0 -8 10 -35 21 -60 26 -55 48 -62 120 -41 29 9 67 16 85 16 27 0 31 3
27 20 -3 12 2 29 12 40 14 15 15 20 4 20 -23 -1 -49 -26 -49 -49 0 -17 -6 -21
-29 -21 -39 0 -46 13 -27 50 8 17 10 28 5 25 -5 -4 -9 14 -9 39 0 25 5 46 10
46 6 0 10 7 10 15 0 28 89 53 133 36 21 -8 26 -18 29 -58 5 -55 -8 -103 -27
-103 -7 0 -15 -9 -18 -20 -5 -21 16 -29 28 -9 4 5 26 8 51 6 41 -3 43 -2 50
27 17 74 -3 204 -35 234 -99 93 -168 105 -278 47 -34 -19 -50 -22 -73 -15 -17
5 -30 6 -31 2 0 -4 -4 2 -9 13 -9 19 -9 19 -16 -2 -3 -13 -14 -23 -23 -23 -10
0 -12 3 -5 8 28 19 24 45 -12 79 -36 33 -37 34 -51 13 -9 -12 -25 -20 -44 -20
-22 0 -28 -3 -22 -12 14 -22 33 -82 33 -105 0 -13 4 -23 9 -23 4 0 12 32 15
70 6 59 10 70 25 70 23 0 31 -27 31 -102 0 -43 4 -58 14 -58 8 0 17 15 20 35
5 26 13 36 32 41 36 9 54 -18 40 -62 -6 -19 -14 -34 -18 -34 -5 0 -8 -5 -8
-10 0 -6 -4 -16 -10 -23 -5 -7 -26 -37 -46 -67 -33 -50 -36 -59 -30 -105 4
-27 9 -73 12 -102 5 -39 11 -52 25 -56 13 -4 19 -14 19 -35 0 -47 -10 -62 -39
-62 -56 1 -62 16 -68 167 -3 76 -9 142 -14 148 -5 5 -9 19 -9 32 0 13 -4 23
-10 23 -5 0 -10 8 -10 17 0 14 -3 14 -20 -5 -16 -17 -20 -35 -20 -89 0 -40 -6
-80 -15 -96 -8 -15 -17 -43 -21 -62 -6 -33 -5 -35 22 -36 16 -1 34 -2 39 -4 6
-1 16 -3 23 -3 6 -1 12 -15 12 -32 0 -16 4 -30 9 -30 5 0 11 -9 14 -20 5 -19
-2 -19 -239 -22 -134 -2 -249 -1 -254 0 -7 3 -10 278 -10 788 l0 784 345 0
c206 0 345 -4 345 -9z m315 -11 c-10 -11 -22 -20 -28 -20 -9 0 -70 -55 -142
-127 -18 -18 -37 -33 -42 -33 -11 0 -23 78 -23 153 l0 47 127 0 c125 0 126 0
108 -20z m-255 -1279 c0 -19 -18 -31 -46 -31 -14 0 -20 31 -7 43 3 4 17 7 30
7 16 0 23 -6 23 -19z m-65 -227 c5 -35 3 -42 -12 -46 -31 -7 -53 3 -53 23 0
11 5 17 10 14 6 -4 10 8 10 28 0 66 33 52 45 -19z m-1140 -34 c3 -5 -1 -10 -9
-10 -9 0 -16 5 -16 10 0 6 4 10 9 10 6 0 13 -4 16 -10z m-2205 -114 c0 -8 -4
-16 -8 -18 -10 -4 -51 -62 -77 -109 -20 -37 -60 -89 -67 -89 -9 0 -75 144 -80
175 -2 12 -12 21 -26 23 -22 3 -22 3 -22 -147 0 -90 -4 -160 -11 -175 -14 -30
-5 -58 16 -50 12 5 15 28 15 135 0 71 4 129 9 129 5 0 24 -29 42 -65 59 -117
75 -118 129 -7 24 48 45 89 49 92 4 3 19 31 34 63 30 63 46 73 48 27 2 -42 3
-47 12 -56 4 -4 7 -20 7 -36 0 -16 5 -38 10 -49 13 -23 52 -25 74 -4 8 8 18
15 23 15 5 0 15 9 23 20 8 11 18 20 23 20 4 0 13 5 20 10 7 6 23 20 37 31 14
11 38 32 53 46 16 13 31 22 34 20 3 -3 -5 -43 -16 -88 -27 -106 -27 -118 -2
-95 10 9 21 34 24 54 3 20 16 61 28 89 l24 53 243 0 242 0 0 -810 0 -810 -222
2 -223 3 -3 29 c-2 16 -12 38 -23 49 -10 11 -19 29 -19 38 0 10 -4 19 -8 21
-5 2 -28 41 -51 88 -24 47 -50 93 -58 102 -13 15 -12 18 14 34 15 10 44 32 64
49 19 16 45 37 57 45 12 8 22 20 22 26 0 6 12 20 26 30 62 45 74 56 74 69 0 7
5 15 10 17 6 2 12 16 14 31 4 41 27 60 57 48 27 -10 52 -1 83 31 28 29 10 35
-26 8 -33 -24 -85 -31 -96 -13 -13 21 -39 -11 -44 -53 -8 -61 -74 -133 -214
-233 -118 -85 -166 -107 -196 -90 -8 5 -53 15 -100 23 -47 8 -109 25 -138 38
-51 23 -52 24 -35 41 17 17 16 18 -11 11 -16 -4 -38 -19 -49 -33 -42 -55 -84
-93 -93 -87 -20 12 -42 -6 -42 -35 0 -23 -5 -29 -21 -29 -46 0 -70 72 -29 85
11 3 20 10 20 14 0 4 22 20 49 35 27 14 51 30 53 34 2 4 20 16 41 26 27 14 40
28 44 48 3 15 8 28 12 28 10 0 30 52 36 95 6 42 35 75 64 75 10 0 27 9 39 20
12 11 26 20 32 20 5 0 10 5 10 10 0 6 9 10 20 10 11 0 20 -5 20 -11 0 -5 5 -7
12 -3 9 6 9 9 0 12 -7 2 -12 11 -12 19 0 10 -6 14 -20 10 -37 -10 -16 38 27
61 12 7 42 12 67 12 43 0 46 -2 47 -27 1 -16 4 -39 8 -53 6 -23 7 -23 25 14
17 37 17 41 2 68 l-17 28 28 0 c24 0 28 4 30 32 2 24 0 29 -9 20 -7 -7 -25
-12 -40 -12 -21 0 -28 -5 -28 -20 0 -17 -7 -20 -51 -20 -50 0 -51 1 -46 27 7
36 -1 53 -24 53 -12 0 -19 -7 -19 -20 0 -11 5 -20 10 -20 6 0 10 -9 10 -20 0
-11 -4 -20 -10 -20 -5 0 -10 -11 -10 -24 0 -15 -7 -27 -17 -31 -10 -3 -27 -25
-39 -48 -16 -33 -27 -43 -57 -50 -20 -5 -37 -15 -37 -22 0 -8 -8 -16 -18 -19
-25 -9 -42 -53 -42 -110 0 -76 -42 -111 -79 -65 -15 19 -22 20 -101 11 -57 -6
-78 -11 -65 -16 11 -4 27 -11 36 -16 10 -5 34 -4 58 2 37 9 44 8 55 -8 17 -23
11 -41 -17 -50 -21 -7 -77 -45 -105 -72 -7 -6 -17 -12 -22 -12 -20 0 -40 -33
-34 -53 10 -31 27 -45 68 -52 41 -8 44 -16 48 -110 l3 -60 108 0 c85 0 110 -3
117 -15 5 -8 8 -21 5 -28 -3 -8 -5 -20 -5 -28 0 -12 -46 -14 -287 -14 l-288 0
3 810 2 810 330 0 c278 0 330 -2 330 -14z m294 -8 c-21 -26 -21 -25 -59 -53
-15 -11 -38 -30 -51 -42 -13 -13 -28 -23 -34 -23 -5 0 -10 -4 -10 -10 0 -5 -9
-10 -20 -10 -18 0 -20 7 -20 80 l0 80 107 0 106 0 -19 -22z m1476 12 c0 -5 -4
-10 -8 -10 -5 0 -18 -17 -30 -38 -11 -21 -30 -48 -42 -62 -23 -27 -22 -45 4
-45 10 0 27 17 39 40 12 22 24 42 27 45 3 3 18 22 33 43 17 22 36 37 49 37 18
0 20 -4 14 -32 -17 -79 -18 -98 -6 -113 14 -17 60 -21 60 -5 0 6 7 10 15 10 8
0 15 3 15 8 0 6 43 30 140 76 14 7 35 18 48 24 63 33 62 33 62 12 0 -11 -4
-20 -10 -20 -5 0 -10 -5 -10 -11 0 -7 -6 -17 -14 -23 -8 -6 -28 -37 -45 -68
-26 -50 -29 -61 -19 -83 13 -29 27 -30 157 -15 101 11 133 1 78 -25 -23 -11
-37 -24 -37 -36 0 -10 -5 -21 -11 -25 -7 -4 -7 -10 -1 -16 7 -7 31 7 72 41 33
28 67 51 75 51 16 0 8 40 -9 41 -6 1 -29 3 -51 6 -55 7 -97 6 -182 -2 -40 -4
-73 -4 -73 0 0 11 43 79 52 83 4 2 8 10 8 18 0 8 4 14 9 14 5 0 13 10 17 22 3
12 17 32 30 45 23 23 27 23 184 21 l160 -3 2 -808 3 -807 -257 0 c-248 0 -257
1 -263 20 -3 11 -10 20 -13 20 -4 0 -16 20 -27 45 -11 25 -23 45 -27 45 -5 0
-8 5 -8 10 0 6 -9 20 -20 32 -11 12 -20 28 -20 35 0 7 -4 13 -9 13 -5 0 -13 9
-16 20 -4 11 -18 32 -31 45 -16 16 -23 32 -20 43 4 13 -3 20 -29 28 -19 6 -35
7 -35 3 0 -5 -31 -9 -69 -9 -62 0 -71 3 -97 28 -16 16 -60 49 -99 74 -38 25
-81 55 -94 67 -13 11 -28 21 -34 21 -5 0 -18 10 -28 22 -11 11 -22 18 -26 14
-4 -3 4 -14 16 -24 12 -9 43 -36 68 -59 24 -23 54 -45 65 -49 12 -3 31 -16 42
-28 12 -12 33 -28 49 -35 33 -17 34 -29 5 -40 -37 -14 -56 -43 -63 -96 -4 -27
-14 -58 -23 -67 -8 -10 -12 -18 -8 -18 12 0 -23 -59 -41 -69 -10 -5 -18 -18
-19 -28 0 -10 -1 -28 -2 -40 l-2 -23 -220 0 -220 0 0 810 0 810 385 0 c250 0
385 -4 385 -10z m330 0 c0 -5 -5 -10 -10 -10 -6 0 -28 -11 -50 -25 -22 -14
-46 -25 -54 -25 -18 0 -76 -32 -76 -42 0 -5 -9 -8 -20 -8 -11 0 -20 2 -20 4 0
3 20 62 35 104 5 15 195 17 195 2z m1260 4 c0 -3 -11 -22 -25 -42 -14 -20 -25
-40 -25 -44 0 -5 -13 -27 -30 -50 -16 -22 -30 -45 -30 -50 0 -5 -9 -19 -20
-30 -22 -24 -22 -42 1 -45 16 -3 68 71 110 153 15 30 29 52 32 47 3 -4 5 -37
5 -71 0 -86 14 -101 73 -78 23 10 56 29 73 43 17 14 54 36 83 49 28 13 54 28
58 33 7 13 45 15 45 3 0 -5 -9 -17 -20 -27 -21 -19 -27 -45 -10 -45 6 0 10 7
10 17 0 9 3 14 6 10 3 -3 21 9 40 28 18 18 41 38 51 44 13 7 15 13 7 21 -13
13 -84 3 -84 -11 0 -5 -9 -9 -19 -9 -11 0 -21 -3 -23 -7 -5 -12 -91 -53 -109
-53 -8 0 -33 -13 -55 -30 -21 -16 -45 -30 -51 -30 -7 0 -13 -4 -13 -10 0 -19
-19 -10 -26 13 -11 32 -12 57 -3 57 4 0 9 26 11 58 l3 57 428 3 427 2 0 -810
0 -810 -340 0 -339 0 3 78 c7 159 21 183 141 244 39 19 84 42 100 51 17 8 41
20 55 25 14 6 46 20 71 31 25 12 64 21 87 21 46 0 53 13 22 40 -22 19 -18 50
8 50 8 0 12 3 9 7 -4 3 -18 0 -32 -7 -19 -10 -30 -11 -50 -2 -31 14 -32 28 -2
38 12 4 33 15 46 25 l24 19 -43 0 c-34 0 -40 -3 -31 -13 15 -19 4 -27 -39 -27
-32 0 -39 5 -56 35 -10 20 -26 35 -36 35 -10 0 -21 0 -25 1 -5 0 -10 -9 -13
-19 -6 -24 -42 -72 -54 -72 -4 0 -23 -12 -41 -27 -65 -56 -244 -154 -277 -152
-10 0 -10 2 0 6 6 2 10 9 6 14 -3 5 2 9 10 9 9 0 16 5 16 10 0 6 -15 3 -32 -6
-68 -35 -142 -28 -193 20 -11 10 -37 29 -58 42 -21 14 -56 43 -77 64 -22 22
-44 40 -50 40 -18 0 -10 22 16 42 19 16 24 27 20 44 -4 16 -2 24 6 24 9 0 9 3
0 12 -7 7 -12 29 -12 49 0 32 3 36 20 32 11 -3 20 -9 20 -13 0 -4 14 -10 30
-12 28 -4 30 -2 30 27 0 46 17 58 52 37 15 -9 27 -19 25 -22 -2 -3 -10 -20
-17 -37 -8 -18 -19 -33 -25 -33 -5 0 -10 -11 -10 -24 0 -15 5 -22 13 -19 6 3
12 9 12 14 0 5 8 9 19 9 15 0 19 8 20 51 1 45 -3 55 -27 76 -56 50 -71 56
-137 55 -70 -1 -87 15 -40 36 14 6 25 16 25 22 0 18 -43 1 -68 -27 -21 -23
-26 -24 -64 -15 -22 6 -46 8 -53 6 -20 -8 -48 -75 -36 -87 8 -8 11 -7 11 1 0
16 47 38 95 46 96 15 188 -24 141 -60 -11 -8 -30 -14 -42 -14 -17 0 -20 -5
-17 -25 3 -15 -1 -31 -12 -41 -16 -16 -16 -19 -1 -29 22 -16 20 -58 -3 -72
-15 -10 -32 -5 -95 26 -62 32 -78 36 -87 25 -6 -8 -27 -14 -45 -14 -19 0 -34
-4 -34 -10 0 -5 6 -10 13 -10 20 0 -15 -20 -36 -20 -20 0 -77 55 -77 74 1 30
19 39 76 37 32 -1 62 -7 66 -14 5 -8 9 -5 13 8 4 11 11 28 16 37 13 25 12 28
-10 28 -11 0 -26 7 -35 15 -21 22 -29 18 -22 -9 6 -24 4 -25 -45 -28 -43 -2
-56 -8 -72 -30 -17 -22 -18 -30 -7 -43 7 -8 9 -15 5 -15 -5 0 8 -16 28 -35 42
-41 45 -51 17 -58 -24 -6 -27 -37 -4 -37 13 0 78 -40 121 -75 26 -21 40 -31
68 -47 17 -9 35 -26 41 -37 6 -12 14 -18 17 -15 9 9 45 -16 100 -71 l47 -48 0
-133 0 -134 -240 0 -240 0 0 810 0 810 350 0 c193 0 350 -2 350 -6z"/>
<path d="M1276 4849 c3 -6 24 -9 49 -6 45 4 50 -5 22 -41 -17 -22 -1 -23 24
-1 13 12 36 26 52 31 50 18 28 28 -64 28 -62 0 -88 -3 -83 -11z"/>
<path d="M377 4823 c-4 -3 -7 -24 -7 -45 0 -27 4 -38 15 -38 10 0 15 10 15 33
0 35 -12 61 -23 50z"/>
<path d="M818 4783 c7 -3 16 -2 19 1 4 3 -2 6 -13 5 -11 0 -14 -3 -6 -6z"/>
<path d="M620 4761 c0 -5 -12 -12 -27 -16 -26 -6 -43 -21 -43 -37 0 -16 26 -7
40 12 8 11 20 20 26 20 7 0 14 7 18 15 3 8 1 15 -4 15 -6 0 -10 -4 -10 -9z"/>
<path d="M640 4730 c0 -13 20 -13 40 0 12 8 9 10 -12 10 -16 0 -28 -4 -28 -10z"/>
<path d="M820 4706 c0 -8 7 -17 16 -20 23 -9 34 -7 34 4 0 6 -7 10 -15 10 -8
0 -15 5 -15 10 0 6 -4 10 -10 10 -5 0 -10 -6 -10 -14z"/>
<path d="M1410 4712 c0 -4 -10 -9 -22 -9 -13 -1 -24 -7 -26 -13 -2 -5 -15 -10
-28 -10 -13 0 -24 -4 -24 -10 0 -12 47 -13 54 -1 3 4 19 11 36 15 17 3 29 10
26 15 -4 5 0 12 6 14 8 3 6 6 -4 6 -10 1 -18 -3 -18 -7z"/>
<path d="M286 4643 c7 -55 10 -61 25 -46 7 7 7 23 -1 52 -15 57 -32 53 -24 -6z"/>
<path d="M710 4639 c0 -5 5 -7 10 -4 6 3 10 8 10 11 0 2 -4 4 -10 4 -5 0 -10
-5 -10 -11z"/>
<path d="M167 4622 c-6 -8 14 -33 65 -80 44 -42 58 -27 18 18 -17 19 -30 37
-30 42 0 4 -7 8 -15 8 -8 0 -15 5 -15 10 0 12 -17 13 -23 2z"/>
<path d="M1365 4591 c-49 -7 -36 -18 24 -20 37 -1 42 1 31 14 -7 8 -13 14 -14
14 0 -1 -19 -5 -41 -8z"/>
<path d="M190 4495 c0 -8 5 -15 10 -15 6 0 10 -7 10 -15 0 -10 10 -15 30 -15
40 0 38 13 -6 39 -42 25 -44 25 -44 6z"/>
<path d="M1330 4490 c-23 -14 -8 -19 30 -10 19 4 30 8 23 9 -6 1 -17 3 -25 6
-7 3 -20 1 -28 -5z"/>
<path d="M1500 4456 c0 -14 5 -26 10 -26 6 0 10 9 10 19 0 11 -4 23 -10 26 -6
4 -10 -5 -10 -19z"/>
<path d="M1428 4448 c-2 -18 -11 -24 -43 -29 -34 -5 -36 -6 -10 -8 45 -2 56
-14 57 -59 0 -31 4 -42 16 -42 12 0 14 9 8 46 -3 26 -6 62 -6 80 0 38 -17 47
-22 12z"/>
<path d="M1311 4413 c-7 -8 -11 -16 -8 -19 6 -7 37 7 37 16 0 16 -15 18 -29 3z"/>
<path d="M247 4414 c-3 -4 2 -18 13 -33 10 -14 21 -36 25 -48 5 -20 3 -23 -19
-23 -24 0 -56 -23 -56 -41 0 -12 27 -12 35 1 3 6 21 10 40 10 38 0 56 18 31
32 -9 5 -16 14 -16 21 0 53 -32 102 -53 81z"/>
<path d="M898 4406 c-19 -14 -24 -36 -8 -36 5 0 14 9 20 19 7 15 23 21 58 24
l47 3 -50 2 c-28 1 -58 -4 -67 -12z"/>
<path d="M584 4381 c3 -5 15 -7 26 -4 28 7 25 13 -6 13 -14 0 -23 -4 -20 -9z"/>
<path d="M674 4383 c17 -3 42 -18 56 -35 20 -23 29 -27 35 -18 13 21 -44 60
-85 58 -33 -1 -33 -1 -6 -5z"/>
<path d="M1528 4363 c7 -3 16 -2 19 1 4 3 -2 6 -13 5 -11 0 -14 -3 -6 -6z"/>
<path d="M1595 4330 c-9 -15 -1 -23 21 -18 15 3 16 4 1 16 -11 9 -17 10 -22 2z"/>
<path d="M145 4294 c14 -20 25 -43 25 -50 0 -7 4 -15 8 -18 17 -10 -2 70 -21
87 -33 28 -38 20 -12 -19z"/>
<path d="M1366 4313 c-4 -9 -3 -20 2 -25 11 -11 36 17 27 32 -9 15 -22 12 -29
-7z"/>
<path d="M726 4278 c-9 -12 -16 -30 -16 -40 0 -31 23 -68 42 -68 10 0 18 -4
18 -10 0 -5 18 -10 40 -10 22 0 40 5 40 10 0 6 6 10 13 10 7 0 19 10 27 21 8
12 21 28 28 35 16 17 12 66 -5 72 -9 2 -13 -8 -13 -33 0 -37 -29 -74 -57 -75
-7 0 -13 -4 -13 -10 0 -15 -34 -12 -66 5 -16 8 -25 15 -20 15 6 0 5 5 -2 12
-8 8 -6 19 10 42 12 17 27 34 33 38 5 4 -2 8 -17 8 -17 0 -33 -9 -42 -22z"/>
<path d="M290 4224 c-16 -9 -19 -14 -9 -14 9 0 24 -9 34 -20 23 -26 34 -25 32
0 -2 35 -28 49 -57 34z"/>
<path d="M1607 4219 c-10 -11 -16 -23 -13 -26 7 -8 56 25 56 37 0 17 -25 11
-43 -11z"/>
<path d="M218 4213 c-28 -4 -36 -17 -19 -27 5 -3 20 3 32 14 13 11 22 19 19
18 -3 0 -17 -3 -32 -5z"/>
<path d="M1453 4199 c4 -13 7 -32 7 -41 0 -10 5 -18 11 -18 15 0 6 73 -10 78
-10 4 -12 -1 -8 -19z"/>
<path d="M1213 4150 c0 -25 2 -35 4 -22 2 12 2 32 0 45 -2 12 -4 2 -4 -23z"/>
<path d="M1547 4183 c-10 -17 9 -98 22 -95 7 1 10 -2 7 -7 -3 -5 -2 -20 4 -33
11 -24 9 -3 -6 100 -6 39 -17 53 -27 35z"/>
<path d="M503 4143 c-16 -32 -17 -63 -3 -63 6 0 10 9 10 20 0 11 5 20 10 20 6
0 10 11 10 25 0 33 -12 32 -27 -2z"/>
<path d="M247 4113 c-11 -10 -8 -65 3 -58 5 3 7 0 4 -8 -3 -8 -1 -18 5 -22 7
-4 11 5 12 22 1 15 3 38 4 51 2 21 -14 30 -28 15z"/>
<path d="M875 4074 c-22 -13 -46 -28 -54 -33 -15 -9 -8 -81 9 -81 4 0 6 -9 3
-19 -5 -20 27 -38 47 -26 6 4 17 1 25 -5 20 -16 74 -3 97 24 19 22 25 86 8 86
-5 0 -10 -11 -10 -24 0 -14 -7 -32 -16 -40 -18 -18 -85 -21 -115 -6 -23 13
-50 62 -41 76 11 16 41 24 47 14 10 -16 22 -11 28 10 4 17 11 19 44 14 21 -3
40 -10 41 -15 2 -5 8 -9 13 -9 12 0 -1 33 -19 48 -24 18 -62 13 -107 -14z"/>
<path d="M100 4068 c0 -4 11 -8 24 -8 34 0 56 -40 63 -115 6 -65 24 -107 39
-92 5 4 4 11 -2 15 -6 4 -10 21 -9 37 1 17 -4 50 -12 75 -7 25 -13 55 -13 68
0 12 -3 22 -7 23 -69 5 -83 5 -83 -3z"/>
<path d="M1597 4023 c-6 -11 -1 -82 7 -90 3 -3 6 17 6 45 0 50 -3 61 -13 45z"/>
<path d="M782 3961 c-11 -7 -11 -9 2 -14 10 -4 16 -1 16 8 0 17 -1 17 -18 6z"/>
<path d="M2090 4876 c0 -31 6 -34 13 -6 3 11 1 23 -4 26 -5 3 -9 -6 -9 -20z"/>
<path d="M2212 4812 c-16 -34 -15 -52 2 -52 14 0 27 52 17 69 -4 5 -12 -2 -19
-17z"/>
<path d="M2104 4802 c-6 -4 -14 -37 -17 -74 -6 -60 -4 -69 13 -78 10 -5 21
-10 24 -10 9 0 7 143 -2 157 -4 7 -12 9 -18 5z"/>
<path d="M2335 4740 c-19 -8 -19 -9 3 -9 12 -1 22 4 22 9 0 6 -1 10 -2 9 -2 0
-12 -4 -23 -9z"/>
<path d="M1974 4695 c18 -42 51 -87 59 -79 7 8 -48 107 -62 112 -9 3 -8 -7 3
-33z"/>
<path d="M2380 4720 c0 -5 5 -10 10 -10 6 0 10 5 10 10 0 6 -4 10 -10 10 -5 0
-10 -4 -10 -10z"/>
<path d="M1955 4623 c4 -10 9 -33 12 -50 5 -30 9 -33 39 -33 19 0 34 4 34 10
0 12 -72 90 -83 90 -5 0 -6 -8 -2 -17z"/>
<path d="M2397 4622 c-20 -22 -21 -32 -4 -32 6 0 17 11 24 25 13 29 3 33 -20
7z"/>
<path d="M2707 4613 c11 -10 22 -25 25 -33 3 -8 7 -10 11 -4 9 15 -21 54 -40
54 -13 0 -12 -3 4 -17z"/>
<path d="M1865 4572 c-9 -10 7 -22 30 -22 36 0 39 17 5 22 -17 3 -32 2 -35 0z"/>
<path d="M3076 4558 c8 -12 104 -10 104 3 0 6 -22 9 -55 8 -30 -1 -52 -6 -49
-11z"/>
<path d="M1910 4490 c8 -5 29 -10 46 -10 35 0 44 -13 44 -61 0 -31 -25 -40
-48 -17 -9 9 -15 10 -20 2 -4 -6 -21 -15 -39 -18 -28 -6 -33 -13 -41 -49 -14
-71 -1 -106 60 -169 47 -49 61 -58 91 -58 37 0 47 -12 47 -55 0 -13 10 -35 23
-48 12 -12 31 -34 42 -48 21 -26 74 -54 83 -44 4 3 -3 8 -14 11 -11 3 -27 15
-35 26 -8 11 -24 32 -36 46 -13 15 -23 32 -23 39 0 6 -7 24 -14 40 -8 15 -18
36 -21 47 -4 15 -11 17 -39 12 -34 -7 -51 3 -122 69 -36 34 -44 93 -16 117 39
35 63 41 103 28 22 -7 39 -17 39 -22 0 -4 5 -8 11 -8 7 0 8 23 4 68 -10 117
-7 112 -78 112 -44 0 -58 -3 -47 -10z"/>
<path d="M3050 4471 c0 -10 34 -21 68 -21 12 0 22 -4 22 -10 0 -5 5 -10 10
-10 6 0 10 7 10 15 0 10 -10 15 -34 15 -19 0 -38 5 -41 10 -8 12 -35 13 -35 1z"/>
<path d="M2960 4370 c0 -5 5 -10 10 -10 6 0 10 5 10 10 0 6 -4 10 -10 10 -5 0
-10 -4 -10 -10z"/>
<path d="M3080 4351 c0 -6 11 -11 25 -11 14 0 25 -4 25 -10 0 -5 11 -10 25
-10 34 0 32 16 -2 24 -16 3 -38 8 -50 12 -14 4 -23 2 -23 -5z"/>
<path d="M2506 4311 c-7 -11 -65 -20 -71 -11 -3 4 -16 5 -30 2 -24 -4 -24 -5
-8 -18 21 -16 73 -19 73 -4 0 6 11 10 25 10 16 0 25 6 25 15 0 17 -6 19 -14 6z"/>
<path d="M3042 4308 c-1 -10 -6 -18 -12 -18 -5 0 -10 -9 -10 -20 0 -11 -9 -25
-20 -32 -23 -14 -26 -34 -7 -41 6 -3 40 -2 73 0 57 5 62 4 69 -16 8 -28 -4
-121 -16 -121 -5 0 -9 -6 -9 -13 0 -43 -114 -90 -152 -63 -19 14 -23 13 -34
-2 -8 -9 -14 -25 -14 -34 0 -9 -9 -19 -19 -23 -11 -3 -22 -12 -25 -20 -8 -21
11 -19 23 3 6 9 11 13 11 8 0 -5 8 0 18 11 13 15 31 19 82 21 l65 1 52 56 c50
53 83 105 83 130 0 23 -25 65 -42 71 -10 3 -18 9 -18 14 0 4 -20 14 -45 21
-40 12 -44 16 -48 49 -2 19 -4 27 -5 18z"/>
<path d="M2324 4265 c35 -32 86 -50 71 -25 -3 6 -11 10 -16 10 -14 0 -39 26
-39 39 0 6 -12 11 -27 11 l-27 0 38 -35z"/>
<path d="M2630 4280 c0 -5 6 -10 14 -10 8 0 16 -5 18 -12 3 -7 24 -11 56 -9
30 1 52 -3 52 -9 0 -5 7 -10 15 -10 8 0 15 -4 15 -10 0 -5 9 -10 20 -10 11 0
20 3 20 8 -1 22 -23 32 -98 43 -45 8 -82 17 -82 21 0 4 -7 8 -15 8 -8 0 -15
-4 -15 -10z"/>
<path d="M2499 4254 c-7 -9 -30 -23 -51 -31 -46 -18 -49 -33 -8 -33 20 0 30
-5 30 -15 0 -8 4 -15 10 -15 5 0 12 -11 16 -25 5 -21 12 -25 48 -26 81 -2 111
3 124 19 15 20 16 64 0 80 -19 19 -26 14 -20 -14 6 -33 -16 -74 -40 -74 -11 0
-39 5 -64 11 -33 9 -46 17 -50 34 -6 25 10 65 27 65 11 0 39 25 39 34 0 13
-48 5 -61 -10z"/>
<path d="M2450 4011 c-53 -14 -107 -45 -121 -70 -23 -41 -24 -103 -1 -129 11
-12 29 -22 40 -22 11 0 24 -4 27 -10 3 -5 26 -10 51 -10 28 0 43 4 39 10 -3 6
1 10 9 10 13 0 63 26 128 65 27 16 48 75 36 100 -20 45 -134 76 -208 56z m53
-75 c24 -19 23 -80 -3 -106 -34 -34 -130 -20 -161 23 -21 29 56 92 98 81 11
-3 24 -1 27 5 9 14 17 13 39 -3z"/>
<path d="M2815 3863 c-19 -10 -25 -18 -16 -21 7 -2 23 5 34 17 25 25 22 26
-18 4z"/>
<path d="M2747 3833 c-15 -2 -25 -9 -22 -14 10 -14 42 -11 49 6 3 8 4 14 3 14
-1 -1 -14 -4 -30 -6z"/>
<path d="M3856 4799 c-9 -63 -6 -99 9 -102 13 -3 18 83 7 125 -9 33 -9 32 -16
-23z"/>
<path d="M3758 4710 c-3 -19 -2 -53 2 -75 11 -64 24 -16 13 53 -8 54 -9 55
-15 22z"/>
<path d="M4130 4721 c0 -5 -11 -12 -25 -15 -14 -4 -25 -11 -25 -16 0 -14 18
-12 23 3 3 10 9 10 26 0 11 -7 25 -13 31 -13 17 0 11 18 -7 23 -17 4 -17 5 0
6 24 1 22 21 -3 21 -11 0 -20 -4 -20 -9z"/>
<path d="M3988 4703 c-10 -2 -18 -11 -18 -19 0 -20 13 -17 28 6 7 11 11 19 10
19 -2 -1 -11 -3 -20 -6z"/>
<path d="M4350 4700 c0 -5 5 -10 11 -10 5 0 7 5 4 10 -3 6 -8 10 -11 10 -2 0
-4 -4 -4 -10z"/>
<path d="M3647 4653 c-10 -10 37 -83 53 -82 10 0 11 2 2 6 -6 2 -10 8 -7 13 3
4 -2 13 -10 20 -8 7 -15 18 -15 26 0 15 -15 26 -23 17z"/>
<path d="M4095 4650 c-3 -5 -2 -10 4 -10 5 0 13 5 16 10 3 6 2 10 -4 10 -5 0
-13 -4 -16 -10z"/>
<path d="M4730 4602 c0 -5 13 -12 29 -15 16 -3 40 -9 54 -12 21 -6 25 -3 23
12 -2 14 -13 19 -54 21 -29 2 -52 -1 -52 -6z"/>
<path d="M3650 4545 c0 -14 5 -25 10 -25 16 0 12 -40 -5 -46 -8 -4 -22 0 -31
7 -21 17 -46 21 -41 6 2 -7 11 -11 21 -9 9 2 16 -2 16 -8 0 -15 63 -12 85 4
18 13 18 16 -18 55 -35 39 -37 40 -37 16z"/>
<path d="M4783 4503 c15 -2 25 -9 22 -14 -4 -5 1 -9 9 -9 10 0 13 6 10 15 -4
9 -18 14 -38 14 -30 -2 -30 -2 -3 -6z"/>
<path d="M4759 4433 c-1 -5 0 -20 1 -35 1 -16 -3 -28 -9 -28 -6 0 -11 -18 -11
-41 0 -35 3 -40 18 -34 57 23 72 24 92 2 14 -14 20 -35 20 -65 0 -66 -29 -110
-90 -136 -30 -12 -32 -16 -17 -22 24 -9 87 21 87 41 0 8 5 15 10 15 6 0 10 5
10 10 0 6 9 20 20 32 14 15 20 36 20 68 0 57 -24 86 -86 102 -39 11 -44 15
-44 40 0 26 3 28 36 28 31 0 35 2 24 15 -13 15 -79 21 -81 8z"/>
<path d="M3605 4419 c-4 -5 10 -9 30 -9 43 0 60 -14 70 -59 l7 -33 -38 6 c-43
7 -52 3 -77 -34 -22 -31 -22 -84 0 -121 21 -36 36 -38 23 -3 -14 35 -12 77 3
98 13 18 87 40 87 26 0 -9 37 -20 44 -13 4 5 -5 32 -27 80 -5 12 -7 33 -3 47
6 25 5 25 -54 25 -33 0 -62 -5 -65 -10z"/>
<path d="M4478 4408 c18 -18 15 -49 -3 -42 -29 11 -15 -16 16 -32 25 -12 33
-13 39 -3 9 14 2 39 -11 39 -5 0 -9 9 -9 19 0 10 -7 22 -16 25 -24 9 -29 7
-16 -6z"/>
<path d="M4130 4362 c0 -14 45 -52 62 -52 16 0 32 37 20 44 -17 9 -82 16 -82
8z"/>
<path d="M4337 4349 c-15 -17 -21 -18 -33 -8 -12 10 -13 9 -8 -5 3 -9 1 -16
-5 -16 -6 0 -11 -5 -11 -11 0 -8 4 -8 14 0 10 8 16 9 21 1 3 -5 18 -10 32 -10
21 0 23 3 14 14 -8 10 -9 16 -1 21 12 7 14 35 2 35 -4 0 -16 -9 -25 -21z"/>
<path d="M4418 4363 c6 -2 18 -2 25 0 6 3 1 5 -13 5 -14 0 -19 -2 -12 -5z"/>
<path d="M3970 4329 c0 -10 11 -19 31 -23 44 -8 57 -7 39 4 -8 5 -15 15 -15
21 0 7 -12 13 -27 13 -20 1 -28 -3 -28 -15z"/>
<path d="M4055 4290 c-4 -6 11 -10 37 -9 33 0 38 2 23 9 -28 12 -53 12 -60 0z"/>
<path d="M4149 4264 c-13 -7 -18 -13 -10 -14 9 0 11 -8 7 -27 -6 -21 -1 -31
24 -54 26 -24 84 -49 115 -49 6 0 22 11 38 24 33 29 36 71 5 97 -26 24 -27 24
-21 -1 3 -11 9 -20 14 -20 18 0 8 -36 -13 -50 -27 -16 -60 -15 -105 6 -31 14
-46 44 -23 44 6 0 10 7 10 15 0 8 5 15 10 15 6 0 10 4 10 9 0 16 -36 19 -61 5z"/>
<path d="M3630 4126 c0 -2 7 -6 15 -10 8 -3 15 -1 15 4 0 6 -7 10 -15 10 -8 0
-15 -2 -15 -4z"/>
<path d="M4683 4104 c-32 -14 -43 -37 -23 -49 14 -9 12 -82 -2 -88 -8 -3 -6
-6 5 -6 19 -1 37 35 41 84 4 44 5 45 21 45 9 0 12 6 9 15 -7 18 -9 18 -51 -1z"/>
<path d="M3696 4088 c3 -5 10 -6 15 -3 5 4 9 2 9 -3 0 -16 60 -33 80 -22 24
13 30 4 30 -45 0 -53 25 -105 51 -105 25 0 24 6 -6 36 -28 28 -32 65 -10 107
11 21 11 29 2 32 -26 8 -176 11 -171 3z"/>
<path d="M4475 4040 c-33 -4 -50 -7 -38 -8 12 -1 23 -7 25 -14 2 -6 29 -13 59
-14 29 -2 64 -6 77 -9 36 -9 26 19 -13 38 -20 9 -39 16 -43 15 -4 -1 -34 -4
-67 -8z"/>
<path d="M3984 4026 c-46 -17 -84 -45 -84 -61 0 -22 29 -18 48 5 10 13 33 23
57 25 34 4 52 7 85 15 7 1 -61 30 -69 29 -3 -1 -20 -6 -37 -13z"/>
<path d="M4363 4013 c9 -2 23 -2 30 0 6 3 -1 5 -18 5 -16 0 -22 -2 -12 -5z"/>
<path d="M4105 4000 c3 -5 8 -10 11 -10 2 0 4 5 4 10 0 6 -5 10 -11 10 -5 0
-7 -4 -4 -10z"/>
<path d="M4130 3988 c0 -4 26 -8 57 -8 31 0 54 2 52 4 -9 8 -109 12 -109 4z"/>
<path d="M4465 3900 c-16 -16 -24 -30 -19 -30 6 0 14 4 20 9 5 5 38 18 74 30
l65 20 -56 0 c-49 1 -59 -3 -84 -29z"/>
<path d="M540 3146 c0 -14 -4 -28 -10 -31 -16 -10 -12 -45 5 -45 17 0 20 7 30
63 5 29 3 37 -10 37 -9 0 -15 -9 -15 -24z"/>
<path d="M713 3073 c-16 -6 -17 -33 -3 -33 11 0 26 28 19 34 -2 2 -10 1 -16
-1z"/>
<path d="M998 3043 c7 -3 16 -2 19 1 4 3 -2 6 -13 5 -11 0 -14 -3 -6 -6z"/>
<path d="M1305 3030 c-10 -32 8 -40 103 -40 45 0 82 -3 82 -6 0 -4 -8 -13 -17
-20 -16 -11 -6 -13 65 -14 65 0 82 3 82 14 0 24 -45 34 -180 43 -65 4 -90 10
-107 25 -21 20 -21 20 -28 -2z"/>
<path d="M407 3008 c-5 -36 7 -58 23 -42 11 11 2 74 -10 74 -4 0 -10 -15 -13
-32z"/>
<path d="M270 3000 c0 -5 4 -10 10 -10 5 0 13 -12 16 -27 7 -28 31 -59 39 -51
6 6 -18 71 -32 86 -14 14 -33 16 -33 2z"/>
<path d="M288 2859 c-3 -38 -3 -39 29 -39 41 0 43 18 4 53 l-29 25 -4 -39z"/>
<path d="M1403 2863 c9 -2 15 -9 12 -14 -4 -5 0 -9 7 -10 15 -1 37 -4 93 -15
36 -7 38 -6 25 8 -9 8 -36 18 -60 21 -25 4 -56 8 -70 10 -14 2 -17 2 -7 0z"/>
<path d="M1025 2843 c11 -2 29 -8 40 -13 11 -4 29 -11 40 -14 16 -5 16 -3 -5
14 -15 12 -39 19 -60 19 -19 -1 -26 -3 -15 -6z"/>
<path d="M693 2825 c-7 -7 -17 -15 -22 -16 -6 -2 -13 -20 -17 -39 l-6 -35 17
25 c10 14 27 35 37 46 11 12 16 24 11 27 -4 3 -13 -1 -20 -8z"/>
<path d="M948 2816 c-10 -7 -18 -18 -18 -25 0 -6 -4 -11 -9 -11 -6 0 -14 -19
-18 -42 -8 -42 -29 -57 -45 -34 -4 6 -10 7 -14 3 -4 -3 -1 -13 6 -21 10 -12 9
-18 -2 -29 -7 -8 -20 -16 -27 -18 -11 -4 -10 -8 4 -22 16 -16 18 -16 38 10 12
16 32 39 44 53 25 27 29 40 13 40 -27 0 18 81 55 99 13 6 15 10 5 10 -8 0 -23
-6 -32 -13z"/>
<path d="M1131 2784 c0 -11 3 -14 6 -6 3 7 2 16 -1 19 -3 4 -6 -2 -5 -13z"/>
<path d="M295 2781 c-3 -6 1 -11 9 -11 12 0 16 -10 16 -35 0 -19 5 -35 10 -35
21 0 10 -42 -12 -48 -23 -6 -23 -6 2 -13 43 -12 64 -11 53 4 -10 12 -16 33
-31 107 -7 34 -34 52 -47 31z"/>
<path d="M1420 2760 c0 -5 5 -10 11 -10 5 0 7 5 4 10 -3 6 -8 10 -11 10 -2 0
-4 -4 -4 -10z"/>
<path d="M950 2730 c0 -5 5 -10 10 -10 6 0 10 -9 10 -20 0 -13 -7 -20 -20 -20
-24 0 -28 -35 -5 -44 26 -9 45 48 29 88 -7 18 -24 22 -24 6z"/>
<path d="M1430 2736 c0 -2 14 -6 30 -8 17 -3 30 -1 30 4 0 4 -13 8 -30 8 -16
0 -30 -2 -30 -4z"/>
<path d="M200 2624 c-21 -49 -25 -74 -12 -74 5 0 13 17 18 37 7 27 16 39 39
47 41 15 43 36 5 36 -27 0 -33 -6 -50 -46z"/>
<path d="M800 2570 c-14 -11 -36 -20 -50 -21 -21 -1 -22 -2 -5 -6 11 -3 30
-17 42 -32 l23 -26 0 27 c0 42 10 58 36 58 13 0 24 5 24 10 0 17 -44 11 -70
-10z"/>
<path d="M925 2581 c-3 -5 2 -16 11 -25 8 -9 14 -28 12 -43 -3 -27 -6 -28 -65
-31 -66 -3 -84 -18 -33 -28 30 -7 41 -28 18 -37 -7 -3 -3 -6 10 -6 18 -1 22
-7 22 -35 0 -19 -5 -36 -10 -38 -7 -2 -6 -16 4 -38 8 -19 15 -27 16 -17 0 9 5
17 10 17 6 0 5 8 -2 20 -10 16 -10 24 0 40 17 28 15 47 -9 63 -22 16 -19 21
25 31 61 15 77 62 36 106 -30 32 -36 35 -45 21z"/>
<path d="M1105 2524 c-12 -9 -34 -14 -52 -12 -18 2 -33 0 -33 -4 0 -7 57 -13
89 -8 14 2 41 24 41 34 0 11 -25 5 -45 -10z"/>
<path d="M210 2489 c0 -5 5 -7 10 -4 6 3 10 8 10 11 0 2 -4 4 -10 4 -5 0 -10
-5 -10 -11z"/>
<path d="M230 2471 c0 -5 7 -12 16 -15 24 -9 28 -7 14 9 -14 17 -30 20 -30 6z"/>
<path d="M315 2420 c-4 -6 9 -10 32 -10 28 0 34 3 23 10 -20 13 -47 13 -55 0z"/>
<path d="M803 2414 c-7 -7 -13 -22 -13 -34 0 -12 -9 -24 -22 -30 -23 -9 -23
-9 2 -11 14 -1 29 -1 34 0 4 1 6 -14 4 -34 -2 -19 0 -35 4 -35 4 0 8 5 8 11 0
8 5 8 15 -1 20 -16 45 -6 45 19 0 12 -11 24 -30 33 -36 15 -43 30 -30 63 11
28 1 39 -17 19z"/>
<path d="M965 2310 c3 -5 22 -10 41 -10 19 0 34 5 34 10 0 6 -18 10 -41 10
-24 0 -38 -4 -34 -10z"/>
<path d="M813 2215 c2 -29 4 -30 47 -30 36 0 45 4 48 19 4 19 3 19 -22 3 -14
-10 -26 -13 -26 -7 0 5 -9 10 -19 10 -11 0 -22 8 -25 18 -2 9 -4 4 -3 -13z"/>
<path d="M3010 3180 c-8 -5 -28 -10 -43 -10 -16 0 -26 -4 -23 -8 3 -5 -9 -6
-26 -4 -23 3 -29 1 -23 -8 4 -7 19 -10 39 -7 79 14 109 23 108 32 -1 14 -15
16 -32 5z"/>
<path d="M2358 3110 c-42 -23 -58 -41 -28 -33 11 3 20 9 20 14 0 5 10 9 23 9
12 0 31 7 41 15 20 15 20 15 0 15 -10 -1 -36 -10 -56 -20z"/>
<path d="M2974 3069 c-5 -8 12 -10 55 -6 82 6 90 17 13 17 -34 0 -64 -5 -68
-11z"/>
<path d="M2258 3054 c-17 -9 -25 -20 -22 -29 5 -12 9 -12 22 3 10 9 24 22 32
29 21 17 1 15 -32 -3z"/>
<path d="M2186 3024 c-9 -8 -16 -20 -16 -26 0 -6 9 -1 20 12 29 33 25 44 -4
14z"/>
<path d="M3020 2996 c0 -2 7 -6 15 -10 8 -3 15 -1 15 4 0 6 -7 10 -15 10 -8 0
-15 -2 -15 -4z"/>
<path d="M2570 2970 c-13 -11 -20 -23 -16 -27 4 -4 10 -3 14 3 4 6 18 18 32
27 17 12 19 17 9 17 -9 0 -26 -9 -39 -20z"/>
<path d="M1969 2961 c-6 -16 15 -144 30 -183 7 -19 15 -26 26 -22 8 3 15 11
15 18 -1 20 -26 105 -33 112 -4 4 -7 16 -7 26 0 10 -4 18 -9 18 -5 0 -11 10
-13 23 -2 14 -5 17 -9 8z"/>
<path d="M2523 2925 c-7 -8 -13 -17 -13 -20 0 -8 -43 -68 -54 -77 -5 -3 -15
-4 -22 -1 -7 3 -23 -5 -35 -16 -14 -13 -36 -21 -56 -21 -26 0 -33 -4 -33 -20
0 -12 7 -20 18 -20 9 0 13 -4 7 -8 -5 -4 -10 -35 -10 -70 0 -37 4 -61 10 -58
6 1 10 12 9 24 0 12 9 26 23 33 25 13 29 24 13 34 -35 22 28 95 82 95 24 0 32
-6 41 -30 6 -16 15 -30 19 -30 4 0 8 -7 8 -15 0 -11 11 -15 36 -15 l37 0 -29
29 c-16 16 -40 41 -53 56 -24 26 -24 26 -3 31 17 5 20 11 15 41 -4 24 -2 38 8
44 9 5 10 11 4 18 -6 6 -14 4 -22 -4z"/>
<path d="M3022 2898 c1 -23 -1 -58 -6 -75 -10 -42 14 -45 40 -5 26 39 46 52
74 45 33 -8 57 -37 72 -85 10 -32 8 -43 -8 -74 -10 -20 -35 -50 -54 -67 l-35
-30 34 6 c18 4 37 7 42 7 22 0 39 62 39 145 l0 85 -32 20 c-40 24 -79 25 -119
4 l-31 -15 4 37 c2 24 -2 39 -10 42 -9 3 -12 -8 -10 -40z"/>
<path d="M2371 2854 c0 -11 3 -14 6 -6 3 7 2 16 -1 19 -3 4 -6 -2 -5 -13z"/>
<path d="M1880 2777 c0 -29 12 -47 31 -47 10 0 19 -4 19 -10 0 -5 7 -10 15
-10 8 0 15 5 15 12 0 6 -3 9 -6 5 -3 -3 -21 10 -40 30 -21 22 -34 29 -34 20z"/>
<path d="M2192 2774 c-12 -8 -22 -22 -22 -31 0 -13 5 -12 25 7 15 14 40 25 61
27 53 4 55 13 3 13 -25 0 -55 -7 -67 -16z"/>
<path d="M1930 2655 c0 -8 5 -15 10 -15 6 0 10 -7 10 -15 0 -8 -9 -15 -20 -15
-11 0 -20 -4 -20 -10 0 -17 40 -11 62 10 l21 19 -24 20 c-29 24 -39 26 -39 6z"/>
<path d="M2545 2625 c-16 -8 -54 -14 -82 -15 -29 0 -53 -4 -53 -10 0 -5 -6
-10 -14 -10 -26 0 -24 -24 6 -67 16 -24 32 -43 37 -43 4 0 16 -8 27 -18 10
-10 34 -27 52 -37 17 -11 32 -23 32 -27 0 -4 9 -8 20 -8 11 0 20 -4 20 -9 0
-16 74 -44 117 -43 39 0 43 -2 43 -24 0 -14 -4 -23 -8 -20 -4 2 -13 -4 -20
-15 -10 -16 -9 -19 4 -19 15 0 54 35 54 49 0 3 14 12 30 19 36 16 60 39 60 55
0 8 -3 8 -8 2 -16 -22 -54 -35 -102 -35 -27 0 -50 5 -50 10 0 6 -7 10 -15 10
-8 0 -15 3 -15 8 0 4 -13 13 -30 20 -61 27 -25 94 46 85 20 -3 34 0 34 6 0 31
89 -2 128 -49 11 -13 12 -11 7 15 -9 42 -21 53 -69 67 -28 7 -58 28 -92 65
-46 47 -56 53 -90 52 -22 0 -52 -7 -69 -14z m120 -30 c14 -14 25 -30 25 -34 0
-16 -234 -39 -266 -27 -14 5 -14 8 -1 21 9 8 17 20 19 26 2 6 30 11 66 12 43
1 62 6 62 14 0 24 67 15 95 -12z"/>
<path d="M3036 2629 c-2 -8 -7 -32 -10 -54 -3 -22 -10 -41 -16 -43 -5 -2 -10
-12 -10 -22 0 -10 -10 -37 -22 -59 -17 -32 -19 -44 -10 -53 9 -9 12 -8 12 4 0
9 8 23 18 30 9 7 23 24 30 36 16 30 32 154 21 166 -5 6 -10 4 -13 -5z"/>
<path d="M1973 2575 c-13 -5 -23 -13 -23 -17 0 -5 -6 -8 -14 -8 -23 0 -27 -16
-6 -17 11 -1 22 2 25 8 7 11 45 12 45 1 0 -5 9 -17 19 -29 10 -11 21 -29 24
-39 3 -13 5 -11 6 9 1 25 -19 67 -44 92 -7 7 -17 7 -32 0z"/>
<path d="M1970 2451 c0 -5 -9 -13 -20 -16 -35 -11 -25 -102 17 -143 18 -18 17
-1 -2 24 -8 10 -15 35 -15 54 0 31 6 39 42 63 l42 27 -32 0 c-18 0 -32 -4 -32
-9z"/>
<path d="M2860 2409 c0 -5 5 -7 10 -4 6 3 10 8 10 11 0 2 -4 4 -10 4 -5 0 -10
-5 -10 -11z"/>
<path d="M2008 2263 c7 -3 16 -2 19 1 4 3 -2 6 -13 5 -11 0 -14 -3 -6 -6z"/>
<path d="M3040 1931 c0 -11 -5 -23 -10 -26 -6 -4 -8 -11 -4 -16 9 -15 24 0 24
26 0 13 6 26 13 28 7 3 5 6 -5 6 -11 1 -18 -6 -18 -18z"/>
<path d="M2235 1890 c3 -5 8 -10 11 -10 2 0 4 5 4 10 0 6 -5 10 -11 10 -5 0
-7 -4 -4 -10z"/>
<path d="M4680 3201 c0 -6 -11 -11 -25 -11 -14 0 -25 -4 -25 -8 0 -4 -12 -9
-26 -10 -14 -1 -40 -8 -57 -16 -18 -8 -47 -20 -65 -27 -34 -15 -38 -36 -6 -31
34 4 98 26 120 39 11 7 24 10 27 6 4 -3 7 -1 7 5 0 7 11 12 25 12 14 0 25 -4
25 -10 0 -5 -4 -10 -8 -10 -9 0 -35 -50 -29 -56 3 -4 51 34 82 66 12 11 31 20
44 20 16 0 22 5 19 18 -2 13 -15 18 -56 20 -32 2 -52 -1 -52 -7z"/>
<path d="M4430 3125 c0 -8 2 -15 4 -15 2 0 6 7 10 15 3 8 1 15 -4 15 -6 0 -10
-7 -10 -15z"/>
<path d="M3820 3047 c0 -29 -5 -58 -11 -64 -13 -13 -5 -43 11 -43 5 0 10 9 10
19 0 11 5 23 10 26 11 7 14 74 4 99 -12 32 -24 14 -24 -37z"/>
<path d="M4115 3051 l-30 -16 35 -3 c19 -2 36 1 38 7 2 6 10 11 18 11 8 0 14
5 14 10 0 15 -41 10 -75 -9z"/>
<path d="M4695 3040 c-4 -6 17 -10 54 -10 34 0 61 4 61 10 0 6 -24 10 -54 10
-30 0 -58 -4 -61 -10z"/>
<path d="M3677 2996 c-19 -49 7 -186 35 -186 14 0 15 5 8 28 -4 15 -11 51 -15
80 -3 29 -9 62 -14 74 -7 19 -8 19 -14 4z"/>
<path d="M4013 2934 c7 -7 -26 -40 -46 -47 -7 -2 -8 -8 -4 -13 4 -5 11 -4 15
2 4 5 24 20 45 33 44 27 46 31 10 31 -14 0 -23 -3 -20 -6z"/>
<path d="M4090 2930 c0 -5 11 -17 25 -26 14 -9 25 -26 25 -38 0 -29 10 -39 27
-25 21 18 16 36 -18 69 -32 30 -59 39 -59 20z"/>
<path d="M4773 2923 c-24 -8 -13 -23 17 -23 17 0 30 4 30 9 0 11 -30 19 -47
14z"/>
<path d="M3566 2851 c-4 -5 -4 -15 -1 -23 6 -16 85 -62 85 -50 0 15 -79 82
-84 73z"/>
<path d="M4430 2795 c0 -8 5 -15 10 -15 6 0 10 7 10 15 0 8 -4 15 -10 15 -5 0
-10 -7 -10 -15z"/>
<path d="M4210 2749 c0 -20 8 -38 23 -50 32 -27 37 -24 37 21 0 22 -4 40 -10
40 -5 0 -10 -11 -10 -25 0 -14 -4 -25 -10 -25 -5 0 -10 16 -10 35 0 19 -4 35
-10 35 -5 0 -10 -14 -10 -31z"/>
<path d="M4715 2770 c3 -5 8 -10 11 -10 2 0 4 5 4 10 0 6 -5 10 -11 10 -5 0
-7 -4 -4 -10z"/>
<path d="M4765 2770 c4 -6 11 -8 16 -5 14 9 11 15 -7 15 -8 0 -12 -5 -9 -10z"/>
<path d="M4082 2732 c-16 -35 -15 -49 4 -56 20 -8 20 -8 27 24 3 14 0 32 -6
41 -11 15 -14 14 -25 -9z"/>
<path d="M3626 2685 c4 -18 1 -27 -10 -31 -9 -3 -16 -10 -16 -14 0 -10 57 17
65 31 7 11 -18 39 -34 39 -7 0 -9 -10 -5 -25z"/>
<path d="M4696 2649 c-26 -25 -13 -36 18 -15 55 36 128 7 130 -52 1 -16 7 -29
14 -29 6 0 12 4 12 8 0 4 3 14 6 22 6 16 -36 67 -55 67 -6 0 -11 5 -11 10 0
19 -94 10 -114 -11z"/>
<path d="M3560 2640 c0 -5 5 -10 10 -10 6 0 10 5 10 10 0 6 -4 10 -10 10 -5 0
-10 -4 -10 -10z"/>
<path d="M4381 2606 c-7 -13 -24 -30 -37 -37 -36 -19 -29 -29 19 -29 46 0 73
24 57 51 -5 8 -4 19 2 26 8 10 6 13 -9 13 -11 0 -25 -11 -32 -24z"/>
<path d="M3603 2605 c-19 -21 -16 -27 6 -14 25 16 46 6 64 -30 13 -27 13 -31
-1 -43 -8 -7 -17 -12 -19 -10 -8 6 -20 0 -47 -23 -21 -18 -30 -36 -33 -69 -5
-42 -4 -46 28 -65 18 -11 35 -18 38 -15 3 3 1 8 -5 12 -16 10 -34 48 -34 70 0
28 55 72 90 72 31 0 53 25 33 39 -5 3 -16 24 -25 46 -14 35 -20 40 -49 42 -20
2 -39 -3 -46 -12z"/>
<path d="M4221 2603 c8 -10 22 -24 32 -31 45 -34 1 -82 -75 -82 -37 0 -50 4
-58 20 -12 22 -4 60 14 72 8 5 8 10 0 18 -11 11 -38 -6 -46 -30 -9 -27 -128
-7 -128 22 0 4 -4 8 -10 8 -5 0 -10 -9 -10 -20 0 -11 5 -20 10 -20 6 0 10 -7
10 -15 0 -9 6 -15 13 -14 6 1 36 1 65 0 40 -1 54 -5 59 -18 8 -21 20 -33 51
-50 36 -21 120 12 144 57 18 34 18 35 -2 52 -11 9 -20 21 -20 26 0 11 -24 22
-47 22 -13 0 -14 -2 -2 -17z"/>
<path d="M4840 2528 c0 -23 -55 -75 -85 -82 -34 -7 -63 13 -82 57 -13 29 -50
40 -39 11 3 -9 6 -33 6 -55 0 -21 5 -39 10 -39 6 0 10 7 10 15 0 8 9 15 20 15
13 0 20 -7 20 -18 0 -22 -22 -72 -32 -72 -5 0 -8 -7 -8 -15 0 -8 -4 -15 -10
-15 -8 0 -15 -25 -23 -88 -2 -13 -11 -32 -20 -43 -19 -21 -23 -49 -7 -49 6 0
10 -13 10 -29 0 -17 4 -32 9 -35 5 -4 12 -25 16 -49 4 -23 11 -44 15 -47 8 -5
13 -54 11 -92 -1 -10 -9 -18 -18 -18 -13 0 -14 -3 -5 -12 30 -30 53 39 41 120
-4 25 4 32 36 32 28 0 35 4 35 20 0 11 -4 20 -8 20 -5 0 -14 11 -20 25 -6 14
-17 25 -23 25 -6 0 -24 14 -40 31 -23 25 -28 38 -24 63 3 17 7 42 9 56 7 39
22 75 41 90 9 7 23 26 31 42 9 17 23 28 35 28 24 0 69 27 88 54 16 21 22 66 9
66 -4 0 -8 -6 -8 -12z"/>
<path d="M4580 2511 c-7 -11 -18 -19 -24 -18 -6 1 -12 -10 -14 -25 -5 -39 14
-35 34 7 9 19 20 35 25 35 5 0 9 5 9 10 0 16 -14 12 -30 -9z"/>
<path d="M4520 2499 c0 -5 5 -7 10 -4 6 3 10 8 10 11 0 2 -4 4 -10 4 -5 0 -10
-5 -10 -11z"/>
<path d="M3794 2433 c-12 -19 2 -83 18 -83 13 0 9 -30 -4 -32 -7 -1 -35 -2
-63 -3 -92 -4 -93 -4 -46 -25 24 -11 63 -20 87 -20 25 0 44 -5 44 -11 0 -11
24 -39 34 -39 3 0 6 9 6 20 0 11 -4 20 -10 20 -5 0 -10 8 -10 19 0 10 -7 36
-16 57 -10 23 -14 53 -11 76 5 41 -10 52 -29 21z"/>
<path d="M1305 1529 c-56 -13 -109 -31 -115 -38 -9 -10 -74 -33 -94 -33 -11 1
-23 7 -27 14 -12 19 -11 0 1 -23 13 -24 34 -24 85 1 22 10 43 16 47 14 5 -3 8
-2 8 3 0 11 49 33 72 33 10 0 18 -4 18 -10 0 -5 -4 -10 -10 -10 -5 0 -10 -7
-10 -16 0 -8 -4 -13 -9 -10 -5 3 -11 0 -14 -8 -11 -28 41 -3 88 42 8 6 18 12
23 12 5 0 15 6 21 14 9 11 7 15 -11 20 -13 3 -25 5 -28 5 -3 -1 -23 -5 -45
-10z"/>
<path d="M658 1363 c-48 -37 -61 -63 -33 -63 8 0 20 9 27 20 7 11 18 20 25 20
7 0 13 5 13 11 0 7 10 20 22 30 40 36 -6 20 -54 -18z"/>
<path d="M1270 1370 l-35 -19 28 -1 c15 0 27 5 27 10 0 6 3 9 8 9 31 -5 92 3
87 11 -10 16 -77 11 -115 -10z"/>
<path d="M1341 1291 c-9 -6 -10 -11 -2 -15 15 -10 53 3 46 15 -8 11 -26 11
-44 0z"/>
<path d="M361 1238 c-1 -52 1 -58 19 -58 25 0 25 21 0 75 l-19 40 0 -57z"/>
<path d="M828 1193 c7 -3 16 -2 19 1 4 3 -2 6 -13 5 -11 0 -14 -3 -6 -6z"/>
<path d="M1365 1190 c3 -5 15 -10 26 -10 10 0 19 5 19 10 0 6 -12 10 -26 10
-14 0 -23 -4 -19 -10z"/>
<path d="M258 1144 c15 -18 33 -33 40 -33 6 -1 12 -6 12 -13 0 -6 2 -9 5 -6
10 10 -18 57 -37 63 -10 4 -18 10 -18 14 0 4 -7 8 -15 8 -10 0 -6 -10 13 -33z"/>
<path d="M850 1170 c0 -5 5 -10 11 -10 5 0 7 5 4 10 -3 6 -8 10 -11 10 -2 0
-4 -4 -4 -10z"/>
<path d="M1346 1108 c-3 -13 -7 -43 -10 -67 -4 -42 -4 -43 22 -36 77 19 83 18
108 -8 19 -21 24 -37 24 -82 0 -59 14 -72 31 -27 7 19 7 38 0 63 -18 60 -45
86 -96 94 -43 6 -46 8 -43 33 2 21 9 28 31 30 44 5 31 22 -18 22 -38 0 -45 -3
-49 -22z"/>
<path d="M617 1028 c-2 -29 -1 -60 4 -68 5 -10 9 10 9 53 0 37 -2 67 -4 67 -2
0 -6 -24 -9 -52z"/>
<path d="M297 1059 c6 -8 13 -25 15 -39 3 -22 -1 -25 -29 -25 -17 0 -35 -3
-39 -7 -4 -5 20 -8 53 -8 72 0 85 16 45 52 -36 32 -61 47 -45 27z"/>
<path d="M1070 1050 c0 -5 9 -10 21 -10 11 0 17 5 14 10 -3 6 -13 10 -21 10
-8 0 -14 -4 -14 -10z"/>
<path d="M315 949 c-16 -10 -25 -19 -20 -20 6 -1 15 -2 20 -4 6 -1 18 -3 28
-3 9 -1 17 -7 17 -13 0 -7 9 -20 21 -29 20 -18 20 -18 0 -25 -10 -3 -30 -3
-43 0 -16 4 -31 -1 -47 -14 -13 -12 -28 -21 -33 -21 -4 0 -8 -7 -8 -15 0 -8
-4 -15 -10 -15 -5 0 -10 -12 -10 -26 0 -14 4 -23 10 -19 5 3 6 13 3 22 -4 10
-2 14 5 9 6 -3 13 3 17 14 3 11 9 21 13 21 4 1 21 3 37 5 17 1 45 6 64 9 33 6
33 7 27 48 -4 23 -10 44 -14 47 -4 3 -12 14 -18 24 -14 27 -24 28 -59 5z"/>
<path d="M887 874 c-3 -3 -3 -12 0 -20 4 -11 9 -12 19 -3 8 6 11 15 8 20 -6
10 -18 12 -27 3z"/>
<path d="M774 783 c-26 -3 -31 -8 -27 -24 3 -10 13 -19 23 -19 24 0 48 -29 32
-39 -9 -5 -5 -16 13 -37 25 -29 33 -64 15 -64 -5 0 -10 -8 -10 -19 0 -24 -19
-39 -57 -47 -35 -7 -50 8 -28 26 16 13 21 50 6 50 -5 0 -15 -14 -23 -31 -9
-17 -19 -30 -24 -29 -5 1 -10 -3 -12 -9 -2 -6 8 -11 22 -11 14 0 26 -4 26 -10
0 -22 49 -8 88 25 l41 35 35 -19 c40 -23 81 -31 81 -16 0 6 -5 10 -12 10 -7 0
-18 6 -25 13 -6 6 -18 12 -26 12 -7 0 -12 8 -10 18 3 14 15 17 77 18 61 0 76
4 87 20 7 10 17 24 22 29 4 6 14 26 22 45 8 19 26 46 40 59 l25 23 -113 -4
c-63 -2 -117 -9 -120 -15 -4 -5 -22 -16 -39 -24 -18 -8 -33 -17 -33 -21 0 -5
-7 -8 -15 -8 -8 0 -15 5 -15 10 0 6 -6 10 -14 10 -19 0 -30 32 -14 42 7 4 9 7
3 6 -5 -1 -24 -3 -41 -5z m316 -11 c0 -14 -36 -52 -49 -52 -7 0 -19 7 -28 15
-12 12 -13 19 -3 30 13 16 80 21 80 7z m-96 -37 c9 -35 -1 -48 -35 -43 -20 3
-29 0 -29 -9 0 -7 -2 -13 -4 -13 -2 0 -11 -2 -18 -5 -8 -3 -24 3 -36 13 l-22
19 26 11 c14 7 29 12 35 12 5 0 19 9 31 20 29 27 45 25 52 -5z"/>
<path d="M252 715 c0 -16 2 -22 5 -12 2 9 2 23 0 30 -3 6 -5 -1 -5 -18z"/>
<path d="M265 680 c-3 -5 -2 -10 4 -10 5 0 13 5 16 10 3 6 2 10 -4 10 -5 0
-13 -4 -16 -10z"/>
<path d="M277 663 c-6 -10 19 -34 26 -26 8 7 -3 33 -13 33 -5 0 -11 -3 -13 -7z"/>
<path d="M2310 1580 c0 -5 5 -10 10 -10 6 0 10 5 10 10 0 6 -4 10 -10 10 -5 0
-10 -4 -10 -10z"/>
<path d="M2282 1520 c-11 -22 -16 -43 -11 -46 5 -3 17 12 26 33 10 21 23 41
28 45 6 5 3 8 -6 8 -10 0 -26 -17 -37 -40z"/>
<path d="M2170 1504 c0 -8 -5 -25 -12 -37 -16 -29 -38 -89 -38 -105 0 -8 9
-12 22 -10 20 3 24 11 30 63 4 33 10 70 13 83 3 12 1 22 -5 22 -5 0 -10 -7
-10 -16z"/>
<path d="M2000 1425 c0 -21 33 -95 42 -95 5 0 8 -8 8 -17 1 -17 2 -16 11 1 8
12 8 25 1 40 -6 11 -16 36 -24 54 -13 33 -38 44 -38 17z"/>
<path d="M2378 1423 c-10 -2 -18 -8 -18 -13 0 -14 33 -21 79 -15 25 3 66 8 90
11 69 9 29 24 -59 23 -41 -1 -83 -3 -92 -6z"/>
<path d="M1985 1325 c3 -22 8 -51 12 -64 5 -20 3 -23 -11 -18 -10 4 -30 10
-44 13 l-27 7 24 -23 c31 -30 108 -40 117 -15 5 12 0 23 -16 35 -13 10 -32 37
-42 61 l-19 44 6 -40z"/>
<path d="M2975 1329 c-7 -10 9 -27 41 -45 11 -6 49 -15 84 -18 90 -10 103 -14
88 -29 -7 -7 -30 -23 -50 -37 -61 -41 -49 -52 24 -23 108 42 119 92 21 93 -13
0 -23 5 -23 10 0 6 -20 10 -44 10 -25 0 -48 5 -51 10 -3 6 -17 10 -31 10 -13
0 -24 4 -24 9 0 13 -28 22 -35 10z"/>
<path d="M1930 1180 c0 -5 12 -12 28 -16 48 -10 52 -13 52 -39 0 -14 5 -25 10
-25 6 0 10 -7 10 -15 0 -20 -19 -19 -42 2 -17 15 -21 15 -57 -3 -77 -37 -92
-112 -36 -183 19 -24 35 -48 35 -52 0 -5 7 -9 15 -9 21 0 19 13 -5 28 -11 7
-20 19 -20 27 0 8 -4 15 -10 15 -19 0 -11 93 10 118 21 25 73 33 92 14 7 -7
20 -12 30 -12 14 0 17 5 13 23 -3 12 -7 32 -8 45 -1 13 -6 21 -14 18 -9 -4
-11 3 -7 23 5 26 3 30 -22 35 -63 14 -74 14 -74 6z"/>
<path d="M2648 1153 c7 -3 16 -2 19 1 4 3 -2 6 -13 5 -11 0 -14 -3 -6 -6z"/>
<path d="M2635 1130 c4 -6 11 -8 16 -5 14 9 11 15 -7 15 -8 0 -12 -5 -9 -10z"/>
<path d="M2310 1112 c0 -4 -12 -9 -27 -10 -31 -2 -37 -7 -29 -21 4 -5 29 -7
59 -4 49 5 55 3 70 -20 9 -13 13 -27 10 -31 -12 -11 -51 -6 -56 7 -6 15 -77
22 -77 8 0 -8 24 -15 100 -28 19 -3 40 -12 48 -19 7 -8 20 -14 28 -14 18 0 18
-17 -1 -36 -10 -10 -15 -34 -15 -67 1 -50 2 -53 39 -69 20 -10 45 -18 55 -18
25 0 14 24 -12 28 -11 2 -24 12 -27 23 -4 10 -11 19 -16 19 -5 0 -9 11 -9 24
0 18 9 27 40 40 22 9 40 21 40 27 0 7 16 -5 35 -26 38 -40 39 -61 4 -99 -10
-11 -17 -22 -14 -24 8 -9 49 18 69 45 18 25 18 25 -8 48 -28 24 -35 51 -11 41
9 -3 18 1 22 10 8 20 -4 31 -19 16 -14 -14 -48 -16 -48 -3 0 4 -18 11 -41 14
-43 6 -89 47 -89 80 0 9 -4 17 -9 17 -5 0 -16 6 -23 13 -34 30 -88 49 -88 29z"/>
<path d="M3148 1073 c12 -2 22 -8 22 -12 0 -4 10 -7 22 -8 11 -1 25 -8 29 -15
6 -9 9 -7 9 8 0 17 -8 23 -37 28 -42 6 -81 6 -45 -1z"/>
<path d="M2690 1020 c0 -5 -6 -10 -14 -10 -7 0 -16 -9 -19 -20 -6 -24 -1 -24
57 -5 37 13 54 13 91 4 26 -7 45 -17 45 -25 0 -16 62 -13 67 2 6 19 -116 64
-172 64 -30 0 -55 -4 -55 -10z"/>
<path d="M3110 1024 c0 -3 7 -12 15 -20 16 -17 18 -14 9 10 -6 15 -24 23 -24
10z"/>
<path d="M2324 965 c19 -14 36 -12 36 6 0 5 -12 9 -27 9 -27 -1 -27 -1 -9 -15z"/>
<path d="M2683 956 c-10 -11 -9 -15 3 -20 23 -9 24 -8 24 14 0 23 -10 25 -27
6z"/>
<path d="M2640 924 c0 -7 27 -34 34 -34 13 0 5 16 -14 28 -11 7 -20 10 -20 6z"/>
<path d="M2830 919 c0 -5 5 -7 10 -4 6 3 10 8 10 11 0 2 -4 4 -10 4 -5 0 -10
-5 -10 -11z"/>
<path d="M3035 910 c-3 -11 -11 -20 -16 -20 -5 0 -9 -7 -9 -15 0 -8 -4 -15
-10 -15 -5 0 -10 -11 -10 -25 0 -25 26 -39 66 -35 63 7 84 -13 77 -72 -5 -39
-4 -41 10 -28 8 8 17 29 19 47 2 26 -4 38 -31 63 -21 18 -46 30 -63 30 -21 0
-28 5 -28 20 0 11 7 23 15 26 19 8 20 44 1 44 -8 0 -18 -9 -21 -20z"/>
<path d="M3085 900 c3 -5 10 -10 16 -10 5 0 9 5 9 10 0 6 -7 10 -16 10 -8 0
-12 -4 -9 -10z"/>
<path d="M2276 865 c-19 -29 -22 -79 -3 -73 6 3 13 17 15 32 2 18 11 30 23 33
10 3 19 12 19 19 0 23 -37 16 -54 -11z"/>
<path d="M2710 886 c0 -2 9 -6 20 -9 11 -3 18 -1 14 4 -5 9 -34 13 -34 5z"/>
<path d="M2005 843 c-43 -6 -49 -17 -18 -33 46 -23 63 -42 63 -69 0 -19 3 -22
12 -13 9 9 8 24 -2 67 -7 30 -16 54 -19 54 -3 -1 -19 -4 -36 -6z"/>
<path d="M2313 795 c-32 -22 -32 -90 -1 -116 11 -11 25 -19 30 -19 14 0 9 30
-7 36 -37 15 -23 67 21 76 25 4 25 32 -1 36 -11 1 -30 -5 -42 -13z"/>
<path d="M2399 779 c-10 -6 -11 -9 -1 -9 6 0 12 -7 12 -16 0 -11 6 -15 20 -11
10 3 27 -1 37 -8 11 -8 33 -11 59 -8 37 4 42 2 49 -19 7 -22 7 -22 12 -3 3 11
10 23 17 27 6 4 -16 8 -49 8 -44 0 -71 6 -101 24 -27 15 -47 21 -55 15z"/>
<path d="M2654 715 c13 -14 26 -25 30 -25 13 0 5 23 -11 36 -31 23 -43 15 -19
-11z"/>
<path d="M2070 710 c0 -5 5 -10 10 -10 6 0 10 5 10 10 0 6 -4 10 -10 10 -5 0
-10 -4 -10 -10z"/>
<path d="M2395 680 c-3 -5 1 -10 9 -10 9 0 16 5 16 10 0 6 -4 10 -9 10 -6 0
-13 -4 -16 -10z"/>
<path d="M3088 649 c-23 -25 -34 -29 -77 -29 -36 0 -53 5 -59 16 -11 19 -32
11 -32 -12 0 -9 -6 -21 -12 -28 -7 -7 -24 -27 -37 -44 -13 -18 -31 -32 -39
-32 -12 0 -13 -3 -4 -12 9 -9 16 -8 30 5 10 9 22 17 26 17 9 0 28 20 42 45 9
17 22 20 81 20 53 1 75 5 87 18 10 9 22 17 27 17 5 0 9 11 9 25 0 31 -8 30
-42 -6z"/>
<path d="M2722 640 c0 -14 2 -19 5 -12 2 6 2 18 0 25 -3 6 -5 1 -5 -13z"/>
<path d="M2615 620 c4 -6 11 -8 16 -5 14 9 11 15 -7 15 -8 0 -12 -5 -9 -10z"/>
<path d="M2771 598 c-1 -16 4 -28 9 -28 12 0 12 8 0 35 -8 18 -9 17 -9 -7z"/>
<path d="M2450 594 c0 -13 30 -34 47 -33 14 0 15 2 3 6 -8 3 -19 12 -23 19 -8
14 -27 19 -27 8z"/>
<path d="M2760 513 c-15 -63 -44 -87 -93 -79 -29 5 -38 3 -35 -6 3 -7 23 -14
46 -16 38 -3 47 1 83 37 22 23 44 41 49 41 13 0 0 31 -21 52 -16 16 -18 14
-29 -29z"/>
<path d="M2525 540 c28 -12 37 -12 30 0 -3 6 -16 10 -28 9 -21 0 -21 -1 -2 -9z"/>
<path d="M2635 520 c-33 -4 -53 -7 -44 -8 9 -1 22 -9 29 -17 13 -15 47 -20 74
-9 16 6 23 46 9 42 -5 -1 -35 -4 -68 -8z"/>
<path d="M4377 1483 c-12 -12 -7 -36 11 -49 20 -15 93 -19 108 -5 5 5 42 11
82 13 72 3 86 -4 60 -30 -20 -20 1 -27 31 -9 16 9 46 17 66 17 32 0 36 3 33
22 -4 31 -42 48 -82 37 -17 -5 -87 -12 -155 -16 -108 -5 -126 -4 -136 10 -7 9
-15 14 -18 10z"/>
<path d="M3715 1420 c-4 -6 -2 -16 3 -23 6 -7 13 -29 17 -49 4 -21 11 -38 16
-38 11 0 11 2 -2 58 -13 53 -23 69 -34 52z"/>
<path d="M3830 1390 c0 -16 5 -30 10 -30 6 0 10 14 10 30 0 17 -4 30 -10 30
-5 0 -10 -13 -10 -30z"/>
<path d="M4015 1392 c-29 -16 -29 -17 -6 -20 13 -2 28 1 34 7 6 6 19 11 29 11
10 0 18 5 18 10 0 15 -41 10 -75 -8z"/>
<path d="M4092 1378 c-6 -6 -12 -16 -12 -20 0 -9 51 -5 68 6 7 4 47 6 90 5 42
-1 79 2 82 7 8 15 -213 17 -228 2z"/>
<path d="M3660 1316 c0 -8 4 -26 10 -40 11 -29 -3 -44 -25 -26 -8 6 -22 10
-32 7 -14 -3 -12 -6 11 -16 16 -6 46 -15 68 -20 53 -12 58 4 18 63 -32 46 -50
58 -50 32z"/>
<path d="M4593 1317 c2 -7 20 -12 40 -12 21 0 37 -3 37 -7 0 -3 14 -9 30 -13
17 -4 30 -10 30 -15 0 -11 56 -33 72 -28 7 3 25 1 41 -3 15 -4 27 -4 27 1 0
11 -21 25 -40 26 -30 2 -80 17 -80 24 0 4 -28 13 -62 19 -35 7 -71 14 -81 16
-11 2 -16 -1 -14 -8z"/>
<path d="M4168 1313 c6 -2 18 -2 25 0 6 3 1 5 -13 5 -14 0 -19 -2 -12 -5z"/>
<path d="M3597 1204 c-15 -15 -6 -24 23 -24 17 0 30 -4 30 -10 0 -5 7 -10 15
-10 17 0 20 -37 4 -60 -8 -11 -12 -12 -16 -2 -2 7 -22 12 -45 12 -32 0 -46 -6
-64 -27 -25 -29 -33 -86 -14 -98 6 -3 10 -14 10 -25 0 -10 6 -20 14 -23 11 -4
13 0 10 16 -9 36 -12 79 -7 96 4 17 53 45 53 30 0 -5 20 -9 45 -9 49 0 49 -1
39 74 -6 44 -8 46 -38 46 -18 0 -37 5 -42 10 -6 6 -13 7 -17 4z"/>
<path d="M4688 1153 c6 -2 18 -2 25 0 6 3 1 5 -13 5 -14 0 -19 -2 -12 -5z"/>
<path d="M4745 1140 c3 -5 22 -10 41 -10 21 0 33 4 29 10 -3 6 -22 10 -41 10
-21 0 -33 -4 -29 -10z"/>
<path d="M4840 1120 c0 -5 5 -10 10 -10 6 0 10 5 10 10 0 6 -4 10 -10 10 -5 0
-10 -4 -10 -10z"/>
<path d="M4110 1100 c0 -5 9 -10 20 -10 11 0 20 -4 20 -10 0 -5 7 -10 15 -10
21 0 19 17 -4 30 -25 13 -51 13 -51 0z"/>
<path d="M4720 1065 c0 -12 34 -26 72 -30 32 -4 7 21 -32 32 -31 8 -40 7 -40
-2z"/>
<path d="M4390 1045 c32 -18 41 -18 34 0 -4 8 -18 15 -33 15 l-26 -1 25 -14z"/>
<path d="M4141 1021 c-31 -29 -40 -51 -21 -51 6 0 10 -5 10 -11 0 -13 16 -30
50 -52 30 -19 84 -14 120 12 33 24 36 45 11 70 l-21 21 0 -31 c0 -17 -5 -39
-11 -50 -9 -18 -17 -19 -52 -14 -60 11 -77 24 -77 62 0 28 4 34 33 41 31 8 31
9 10 20 -18 10 -25 8 -52 -17z"/>
<path d="M4689 998 c-1 -2 -3 -13 -4 -26 -2 -23 -2 -23 16 -3 11 11 19 23 19
26 0 5 -29 8 -31 3z"/>
<path d="M4462 955 c-14 -7 -19 -15 -13 -19 13 -8 61 3 61 14 0 5 11 7 24 6
14 -2 30 1 38 5 22 14 -85 8 -110 -6z"/>
<path d="M4607 934 c3 -8 13 -19 23 -24 17 -9 29 -8 91 5 22 5 31 0 48 -23 12
-17 21 -36 21 -44 0 -8 5 -19 12 -26 9 -9 9 -12 0 -12 -7 0 -12 -7 -12 -15 0
-8 6 -15 13 -15 6 0 22 -3 35 -6 16 -5 22 -2 22 10 0 9 -8 16 -19 16 -14 0
-20 10 -24 40 -4 29 -14 47 -38 67 -43 38 -63 44 -97 32 -19 -6 -37 -6 -55 0
-21 8 -25 8 -20 -5z"/>
<path d="M4495 893 c-11 -3 -24 -9 -29 -14 -6 -5 -18 -9 -27 -9 -10 0 -19 -4
-21 -9 -1 -6 -22 -11 -46 -12 -43 -3 -43 -4 -38 -34 4 -20 0 -38 -10 -53 -19
-28 -13 -39 9 -17 14 13 18 12 36 -11 12 -15 21 -22 21 -17 0 6 19 29 42 52
38 38 45 42 86 39 l44 -3 -32 -40 c-35 -44 -24 -60 15 -21 16 16 31 23 42 19
11 -4 14 -3 9 5 -4 6 2 19 14 29 11 10 20 21 20 25 0 13 -38 9 -42 -3 -2 -7
-15 -2 -31 14 -17 15 -24 28 -17 32 5 3 10 13 10 21 0 14 -17 16 -55 7z m-15
-54 c0 -6 -8 -9 -19 -6 -10 2 -18 -1 -18 -7 1 -32 -4 -47 -13 -41 -5 3 -10 -1
-10 -9 0 -20 -34 -21 -50 -1 -20 24 -7 48 35 61 52 16 75 17 75 3z"/>
<path d="M4118 869 c18 -19 15 -47 -8 -61 -28 -18 -25 -30 8 -26 22 2 28 8 30
36 3 25 8 32 25 32 31 0 8 18 -33 26 -29 6 -33 4 -22 -7z"/>
<path d="M4220 840 c0 -5 14 -10 30 -10 17 0 30 4 30 8 0 4 -13 9 -30 10 -16
1 -30 -2 -30 -8z"/>
<path d="M4211 764 c-7 -8 -10 -18 -6 -22 4 -4 10 -1 12 6 3 6 11 12 19 12 8
0 14 5 14 10 0 15 -23 11 -39 -6z"/>
<path d="M4905 770 c3 -5 13 -10 21 -10 8 0 14 5 14 10 0 6 -9 10 -21 10 -11
0 -17 -4 -14 -10z"/>
<path d="M4970 737 c0 -16 -12 -35 -31 -51 -20 -17 -25 -26 -15 -26 16 0 76
51 76 64 0 4 -7 14 -15 22 -13 14 -15 13 -15 -9z"/>
<path d="M4451 674 c-18 -21 -6 -30 14 -11 8 9 15 18 15 21 0 11 -15 5 -29
-10z"/>
<path d="M4412 630 c-7 -11 -8 -20 -3 -20 9 0 24 30 18 36 -1 2 -8 -6 -15 -16z"/>
</g>
</svg>
